%TF.GenerationSoftware,KiCad,Pcbnew,9.0.6*%
%TF.CreationDate,2026-01-28T16:00:35+00:00*%
%TF.ProjectId,RoomHealthBlackBox,526f6f6d-4865-4616-9c74-68426c61636b,rev?*%
%TF.SameCoordinates,Original*%
%TF.FileFunction,Copper,L1,Top*%
%TF.FilePolarity,Positive*%
%FSLAX46Y46*%
G04 Gerber Fmt 4.6, Leading zero omitted, Abs format (unit mm)*
G04 Created by KiCad (PCBNEW 9.0.6) date 2026-01-28 16:00:35*
%MOMM*%
%LPD*%
G01*
G04 APERTURE LIST*
G04 Aperture macros list*
%AMRoundRect*
0 Rectangle with rounded corners*
0 $1 Rounding radius*
0 $2 $3 $4 $5 $6 $7 $8 $9 X,Y pos of 4 corners*
0 Add a 4 corners polygon primitive as box body*
4,1,4,$2,$3,$4,$5,$6,$7,$8,$9,$2,$3,0*
0 Add four circle primitives for the rounded corners*
1,1,$1+$1,$2,$3*
1,1,$1+$1,$4,$5*
1,1,$1+$1,$6,$7*
1,1,$1+$1,$8,$9*
0 Add four rect primitives between the rounded corners*
20,1,$1+$1,$2,$3,$4,$5,0*
20,1,$1+$1,$4,$5,$6,$7,0*
20,1,$1+$1,$6,$7,$8,$9,0*
20,1,$1+$1,$8,$9,$2,$3,0*%
%AMFreePoly0*
4,1,6,0.500000,-0.850000,-0.500000,-0.850000,-0.500000,0.550000,-0.200000,0.850000,0.500000,0.850000,0.500000,-0.850000,0.500000,-0.850000,$1*%
G04 Aperture macros list end*
%TA.AperFunction,SMDPad,CuDef*%
%ADD10RoundRect,0.100000X0.130000X0.100000X-0.130000X0.100000X-0.130000X-0.100000X0.130000X-0.100000X0*%
%TD*%
%TA.AperFunction,SMDPad,CuDef*%
%ADD11RoundRect,0.100000X0.100000X-0.130000X0.100000X0.130000X-0.100000X0.130000X-0.100000X-0.130000X0*%
%TD*%
%TA.AperFunction,SMDPad,CuDef*%
%ADD12RoundRect,0.100000X-0.130000X-0.100000X0.130000X-0.100000X0.130000X0.100000X-0.130000X0.100000X0*%
%TD*%
%TA.AperFunction,SMDPad,CuDef*%
%ADD13RoundRect,0.100000X-0.100000X0.130000X-0.100000X-0.130000X0.100000X-0.130000X0.100000X0.130000X0*%
%TD*%
%TA.AperFunction,SMDPad,CuDef*%
%ADD14R,0.850000X1.100000*%
%TD*%
%TA.AperFunction,SMDPad,CuDef*%
%ADD15R,0.750000X1.100000*%
%TD*%
%TA.AperFunction,SMDPad,CuDef*%
%ADD16R,1.200000X1.000000*%
%TD*%
%TA.AperFunction,SMDPad,CuDef*%
%ADD17R,1.550000X1.350000*%
%TD*%
%TA.AperFunction,SMDPad,CuDef*%
%ADD18R,1.900000X1.350000*%
%TD*%
%TA.AperFunction,SMDPad,CuDef*%
%ADD19R,1.170000X1.800000*%
%TD*%
%TA.AperFunction,ComponentPad*%
%ADD20R,1.700000X1.700000*%
%TD*%
%TA.AperFunction,ComponentPad*%
%ADD21C,1.700000*%
%TD*%
%TA.AperFunction,SMDPad,CuDef*%
%ADD22RoundRect,0.375000X-0.625000X-0.375000X0.625000X-0.375000X0.625000X0.375000X-0.625000X0.375000X0*%
%TD*%
%TA.AperFunction,SMDPad,CuDef*%
%ADD23RoundRect,0.500000X-0.500000X-1.400000X0.500000X-1.400000X0.500000X1.400000X-0.500000X1.400000X0*%
%TD*%
%TA.AperFunction,SMDPad,CuDef*%
%ADD24RoundRect,0.212500X0.737500X0.212500X-0.737500X0.212500X-0.737500X-0.212500X0.737500X-0.212500X0*%
%TD*%
%TA.AperFunction,SMDPad,CuDef*%
%ADD25RoundRect,0.212500X0.212500X0.737500X-0.212500X0.737500X-0.212500X-0.737500X0.212500X-0.737500X0*%
%TD*%
%TA.AperFunction,HeatsinkPad*%
%ADD26R,4.800000X4.800000*%
%TD*%
%TA.AperFunction,SMDPad,CuDef*%
%ADD27RoundRect,0.250000X0.400000X-0.525000X0.400000X0.525000X-0.400000X0.525000X-0.400000X-0.525000X0*%
%TD*%
%TA.AperFunction,ComponentPad*%
%ADD28R,3.500000X3.500000*%
%TD*%
%TA.AperFunction,ComponentPad*%
%ADD29RoundRect,0.750000X-0.750000X-1.000000X0.750000X-1.000000X0.750000X1.000000X-0.750000X1.000000X0*%
%TD*%
%TA.AperFunction,ComponentPad*%
%ADD30RoundRect,0.875000X-0.875000X-0.875000X0.875000X-0.875000X0.875000X0.875000X-0.875000X0.875000X0*%
%TD*%
%TA.AperFunction,SMDPad,CuDef*%
%ADD31R,0.900000X1.500000*%
%TD*%
%TA.AperFunction,SMDPad,CuDef*%
%ADD32R,1.500000X0.900000*%
%TD*%
%TA.AperFunction,SMDPad,CuDef*%
%ADD33R,1.050000X1.050000*%
%TD*%
%TA.AperFunction,HeatsinkPad*%
%ADD34C,0.600000*%
%TD*%
%TA.AperFunction,HeatsinkPad*%
%ADD35R,4.200000X4.200000*%
%TD*%
%TA.AperFunction,ComponentPad*%
%ADD36RoundRect,0.249999X-1.250001X-1.250001X1.250001X-1.250001X1.250001X1.250001X-1.250001X1.250001X0*%
%TD*%
%TA.AperFunction,ComponentPad*%
%ADD37C,3.000000*%
%TD*%
%TA.AperFunction,SMDPad,CuDef*%
%ADD38RoundRect,0.150000X0.150000X-0.512500X0.150000X0.512500X-0.150000X0.512500X-0.150000X-0.512500X0*%
%TD*%
%TA.AperFunction,SMDPad,CuDef*%
%ADD39RoundRect,0.150000X-0.150000X0.875000X-0.150000X-0.875000X0.150000X-0.875000X0.150000X0.875000X0*%
%TD*%
%TA.AperFunction,SMDPad,CuDef*%
%ADD40RoundRect,0.075000X0.075000X-0.250000X0.075000X0.250000X-0.075000X0.250000X-0.075000X-0.250000X0*%
%TD*%
%TA.AperFunction,SMDPad,CuDef*%
%ADD41R,0.250000X0.550000*%
%TD*%
%TA.AperFunction,SMDPad,CuDef*%
%ADD42FreePoly0,270.000000*%
%TD*%
%TA.AperFunction,ViaPad*%
%ADD43C,0.600000*%
%TD*%
%TA.AperFunction,Conductor*%
%ADD44C,0.200000*%
%TD*%
G04 APERTURE END LIST*
D10*
%TO.P,D_ENV1,1,K*%
%TO.N,/MIC_ENV*%
X169475000Y-96460000D03*
%TO.P,D_ENV1,2,A*%
%TO.N,/MIC_AMP_OUT*%
X168835000Y-96460000D03*
%TD*%
D11*
%TO.P,R2,1*%
%TO.N,+3V3*%
X166500000Y-143640000D03*
%TO.P,R2,2*%
%TO.N,/I2C_SCL*%
X166500000Y-143000000D03*
%TD*%
D12*
%TO.P,R_ENV1,1*%
%TO.N,GND*%
X171525000Y-98460000D03*
%TO.P,R_ENV1,2*%
%TO.N,/MIC_ENV*%
X172165000Y-98460000D03*
%TD*%
D10*
%TO.P,R_LED_R1,1*%
%TO.N,Net-(D_R1-A)*%
X154820000Y-134000000D03*
%TO.P,R_LED_R1,2*%
%TO.N,/LED_R*%
X154180000Y-134000000D03*
%TD*%
D13*
%TO.P,R4,1*%
%TO.N,/VREF_MID*%
X166500000Y-103140000D03*
%TO.P,R4,2*%
%TO.N,GND*%
X166500000Y-103780000D03*
%TD*%
D12*
%TO.P,R_V1,1*%
%TO.N,/VBAT*%
X150736000Y-109892840D03*
%TO.P,R_V1,2*%
%TO.N,/ADC_VBAT*%
X151376000Y-109892840D03*
%TD*%
D14*
%TO.P,J2,1,DAT2*%
%TO.N,unconnected-(J2-DAT2-Pad1)*%
X155835000Y-154325000D03*
%TO.P,J2,2,DAT3/CD*%
%TO.N,/SPI_CS_SD*%
X154735000Y-154325000D03*
%TO.P,J2,3,CMD*%
%TO.N,/SPI_MOSI*%
X153635000Y-154325000D03*
%TO.P,J2,4,VDD*%
%TO.N,+3V3*%
X152535000Y-154325000D03*
%TO.P,J2,5,CLK*%
%TO.N,/SPI_SCK*%
X151435000Y-154325000D03*
%TO.P,J2,6,VSS*%
%TO.N,GND*%
X150335000Y-154325000D03*
%TO.P,J2,7,DAT0*%
%TO.N,/SPI_MISO*%
X149235000Y-154325000D03*
D15*
%TO.P,J2,8,DAT1*%
%TO.N,unconnected-(J2-DAT1-Pad8)*%
X148185000Y-154325000D03*
D16*
%TO.P,J2,9,SHIELD*%
%TO.N,GND*%
X158470000Y-148175000D03*
%TO.P,J2,10*%
%TO.N,N/C*%
X158470000Y-144475000D03*
D17*
%TO.P,J2,11*%
X158295000Y-154200000D03*
D18*
X154970000Y-143500000D03*
X149000000Y-143500000D03*
D19*
X146975000Y-153975000D03*
%TD*%
D13*
%TO.P,R7,1*%
%TO.N,/MIC_AMP_OUT*%
X170000000Y-99140000D03*
%TO.P,R7,2*%
%TO.N,Net-(U_MIC1--)*%
X170000000Y-99780000D03*
%TD*%
%TO.P,R_ADC1,1*%
%TO.N,/MIC_ENV*%
X172000000Y-99295000D03*
%TO.P,R_ADC1,2*%
%TO.N,/ADC_MIC*%
X172000000Y-99935000D03*
%TD*%
D11*
%TO.P,R1,1*%
%TO.N,+3V3*%
X167500000Y-143615000D03*
%TO.P,R1,2*%
%TO.N,/I2C_SDA*%
X167500000Y-142975000D03*
%TD*%
D20*
%TO.P,U_CHG1,1,Pin_1*%
%TO.N,/VIN_5V*%
X150801000Y-97272840D03*
D21*
%TO.P,U_CHG1,2,Pin_2*%
%TO.N,GND*%
X150801000Y-99812840D03*
%TO.P,U_CHG1,3,Pin_3*%
%TO.N,/VBAT*%
X150801000Y-102352840D03*
%TO.P,U_CHG1,4,Pin_4*%
%TO.N,Net-(U_CHG1-Pin_4)*%
X150801000Y-104892840D03*
%TD*%
D11*
%TO.P,C_SD1,1*%
%TO.N,GND*%
X160800001Y-151475000D03*
%TO.P,C_SD1,2*%
%TO.N,+3V3*%
X160800001Y-150835000D03*
%TD*%
D10*
%TO.P,D1,1,K*%
%TO.N,/VREG_IN*%
X139121000Y-112892840D03*
%TO.P,D1,2,A*%
%TO.N,/VIN_5V*%
X138481000Y-112892840D03*
%TD*%
D20*
%TO.P,J_MIC1,1,Pin_1*%
%TO.N,GND*%
X162500000Y-99380000D03*
D21*
%TO.P,J_MIC1,2,Pin_2*%
%TO.N,/MIC_IN_AC*%
X162500000Y-101920000D03*
%TO.P,J_MIC1,3,Pin_3*%
%TO.N,+3V3*%
X162500000Y-104460000D03*
%TO.P,J_MIC1,4*%
%TO.N,N/C*%
X162500000Y-107000000D03*
%TD*%
D11*
%TO.P,R5,1*%
%TO.N,/VREF_MID*%
X166500000Y-102280000D03*
%TO.P,R5,2*%
%TO.N,/MIC_IN_COUP*%
X166500000Y-101640000D03*
%TD*%
D12*
%TO.P,C_ENV1,1*%
%TO.N,GND*%
X171525000Y-97460000D03*
%TO.P,C_ENV1,2*%
%TO.N,/MIC_ENV*%
X172165000Y-97460000D03*
%TD*%
D10*
%TO.P,D2,1,K*%
%TO.N,/VREG_IN*%
X139121000Y-113892840D03*
%TO.P,D2,2,A*%
%TO.N,/VBAT*%
X138481000Y-113892840D03*
%TD*%
%TO.P,R_LED_G1,1*%
%TO.N,Net-(D_G1-A)*%
X154845000Y-132000000D03*
%TO.P,R_LED_G1,2*%
%TO.N,/LED_G*%
X154205000Y-132000000D03*
%TD*%
D12*
%TO.P,C_IN1,1*%
%TO.N,GND*%
X138801000Y-115392840D03*
%TO.P,C_IN1,2*%
%TO.N,/VREG_IN*%
X139441000Y-115392840D03*
%TD*%
D22*
%TO.P,U3,1,GND*%
%TO.N,GND*%
X141451000Y-110200000D03*
%TO.P,U3,2,VO*%
%TO.N,+3V3*%
X141451000Y-112500000D03*
D23*
X147751000Y-112500000D03*
D22*
%TO.P,U3,3,VI*%
%TO.N,/VREG_IN*%
X141451000Y-114800000D03*
%TD*%
D11*
%TO.P,C_REF1,1*%
%TO.N,GND*%
X167500000Y-103625000D03*
%TO.P,C_REF1,2*%
%TO.N,/VREF_MID*%
X167500000Y-102985000D03*
%TD*%
D12*
%TO.P,C_CO2,1*%
%TO.N,+3V3*%
X172985000Y-155300000D03*
%TO.P,C_CO2,2*%
%TO.N,GND*%
X173625000Y-155300000D03*
%TD*%
D11*
%TO.P,R3,1*%
%TO.N,+3V3*%
X165500000Y-104780000D03*
%TO.P,R3,2*%
%TO.N,/VREF_MID*%
X165500000Y-104140000D03*
%TD*%
D13*
%TO.P,R_RTCINT1,1*%
%TO.N,+3V3*%
X154500000Y-117680000D03*
%TO.P,R_RTCINT1,2*%
%TO.N,Net-(U1-IO27)*%
X154500000Y-118320000D03*
%TD*%
D24*
%TO.P,U4,1*%
%TO.N,N/C*%
X175655000Y-152000000D03*
%TO.P,U4,2*%
X175655000Y-150750000D03*
%TO.P,U4,3*%
X175655000Y-149500000D03*
%TO.P,U4,4*%
X175655000Y-148250000D03*
%TO.P,U4,5*%
X175655000Y-147000000D03*
D25*
%TO.P,U4,6,GND*%
%TO.N,GND*%
X174005000Y-145350000D03*
%TO.P,U4,7,VDD*%
%TO.N,+3V3*%
X172755000Y-145350000D03*
%TO.P,U4,8*%
%TO.N,N/C*%
X171505000Y-145350000D03*
%TO.P,U4,9,SCL*%
%TO.N,/I2C_SCL*%
X170255000Y-145350000D03*
%TO.P,U4,10,SDA*%
%TO.N,/I2C_SDA*%
X169005000Y-145350000D03*
D24*
%TO.P,U4,11*%
%TO.N,N/C*%
X167355000Y-147000000D03*
%TO.P,U4,12*%
X167355000Y-148250000D03*
%TO.P,U4,13*%
X167355000Y-149500000D03*
%TO.P,U4,14*%
X167355000Y-150750000D03*
%TO.P,U4,15*%
X167355000Y-152000000D03*
D25*
%TO.P,U4,16*%
X169005000Y-153650000D03*
%TO.P,U4,17*%
X170255000Y-153650000D03*
%TO.P,U4,18*%
X171505000Y-153650000D03*
%TO.P,U4,19,VDD*%
%TO.N,+3V3*%
X172755000Y-153650000D03*
%TO.P,U4,20,GND*%
%TO.N,GND*%
X174005000Y-153650000D03*
D26*
%TO.P,U4,21,GND*%
X171505000Y-149500000D03*
%TD*%
D10*
%TO.P,C_IN2,1*%
%TO.N,/MIC_IN_COUP*%
X165500000Y-101460000D03*
%TO.P,C_IN2,2*%
%TO.N,/MIC_IN_AC*%
X164860000Y-101460000D03*
%TD*%
D27*
%TO.P,SW_CFG1,1,1*%
%TO.N,GND*%
X138250000Y-151980000D03*
X138250000Y-144020000D03*
%TO.P,SW_CFG1,2,2*%
%TO.N,/BTN_CFG*%
X142750000Y-151980000D03*
X142750000Y-144020000D03*
%TD*%
D28*
%TO.P,J1,1*%
%TO.N,/VIN_5V*%
X144801000Y-100935340D03*
D29*
%TO.P,J1,2*%
%TO.N,Net-(U_CHG1-Pin_4)*%
X138801000Y-100935340D03*
D30*
%TO.P,J1,3*%
%TO.N,N/C*%
X141801000Y-105635340D03*
%TD*%
D10*
%TO.P,C_OUT1,1*%
%TO.N,GND*%
X150621000Y-113392840D03*
%TO.P,C_OUT1,2*%
%TO.N,+3V3*%
X149981000Y-113392840D03*
%TD*%
D12*
%TO.P,R_V2,1*%
%TO.N,/ADC_VBAT*%
X152301000Y-109892840D03*
%TO.P,R_V2,2*%
%TO.N,GND*%
X152941000Y-109892840D03*
%TD*%
D10*
%TO.P,D_R1,1,K*%
%TO.N,GND*%
X156320000Y-134000000D03*
%TO.P,D_R1,2,A*%
%TO.N,Net-(D_R1-A)*%
X155680000Y-134000000D03*
%TD*%
%TO.P,R_EN1,1*%
%TO.N,+3V3*%
X177500000Y-114000000D03*
%TO.P,R_EN1,2*%
%TO.N,Net-(U1-EN)*%
X176860000Y-114000000D03*
%TD*%
D31*
%TO.P,U1,1,GND*%
%TO.N,GND*%
X178865000Y-115667500D03*
%TO.P,U1,2,VDD*%
%TO.N,+3V3*%
X177595000Y-115667500D03*
%TO.P,U1,3,EN*%
%TO.N,Net-(U1-EN)*%
X176325000Y-115667500D03*
%TO.P,U1,4,SENSOR_VP*%
%TO.N,unconnected-(U1-SENSOR_VP-Pad4)*%
X175055000Y-115667500D03*
%TO.P,U1,5,SENSOR_VN*%
%TO.N,unconnected-(U1-SENSOR_VN-Pad5)*%
X173785000Y-115667500D03*
%TO.P,U1,6,IO34*%
%TO.N,/ADC_MIC*%
X172515000Y-115667500D03*
%TO.P,U1,7,IO35*%
%TO.N,/ADC_VBAT*%
X171245000Y-115667500D03*
%TO.P,U1,8,IO32*%
%TO.N,unconnected-(U1-IO32-Pad8)*%
X169975000Y-115667500D03*
%TO.P,U1,9,IO33*%
%TO.N,unconnected-(U1-IO33-Pad9)*%
X168705000Y-115667500D03*
%TO.P,U1,10,IO25*%
%TO.N,unconnected-(U1-IO25-Pad10)*%
X167435000Y-115667500D03*
%TO.P,U1,11,IO26*%
%TO.N,unconnected-(U1-IO26-Pad11)*%
X166165000Y-115667500D03*
%TO.P,U1,12,IO27*%
%TO.N,Net-(U1-IO27)*%
X164895000Y-115667500D03*
%TO.P,U1,13,IO14*%
%TO.N,unconnected-(U1-IO14-Pad13)*%
X163625000Y-115667500D03*
%TO.P,U1,14,IO12*%
%TO.N,unconnected-(U1-IO12-Pad14)*%
X162355000Y-115667500D03*
D32*
%TO.P,U1,15,GND*%
%TO.N,GND*%
X161105000Y-118707500D03*
%TO.P,U1,16,IO13*%
%TO.N,unconnected-(U1-IO13-Pad16)*%
X161105000Y-119977500D03*
%TO.P,U1,17,SHD/SD2*%
%TO.N,unconnected-(U1-SHD{slash}SD2-Pad17)*%
X161105000Y-121247500D03*
%TO.P,U1,18,SWP/SD3*%
%TO.N,unconnected-(U1-SWP{slash}SD3-Pad18)*%
X161105000Y-122517500D03*
%TO.P,U1,19,SCS/CMD*%
%TO.N,unconnected-(U1-SCS{slash}CMD-Pad19)*%
X161105000Y-123787500D03*
%TO.P,U1,20,SCK/CLK*%
%TO.N,unconnected-(U1-SCK{slash}CLK-Pad20)*%
X161105000Y-125057500D03*
%TO.P,U1,21,SDO/SD0*%
%TO.N,unconnected-(U1-SDO{slash}SD0-Pad21)*%
X161105000Y-126327500D03*
%TO.P,U1,22,SDI/SD1*%
%TO.N,unconnected-(U1-SDI{slash}SD1-Pad22)*%
X161105000Y-127597500D03*
%TO.P,U1,23,IO15*%
%TO.N,unconnected-(U1-IO15-Pad23)*%
X161105000Y-128867500D03*
%TO.P,U1,24,IO2*%
%TO.N,/LED_G*%
X161105000Y-130137500D03*
D31*
%TO.P,U1,25,IO0*%
%TO.N,/BTN_CFG*%
X162355000Y-133167500D03*
%TO.P,U1,26,IO4*%
%TO.N,/LED_R*%
X163625000Y-133167500D03*
%TO.P,U1,27,IO16*%
%TO.N,unconnected-(U1-IO16-Pad27)*%
X164895000Y-133167500D03*
%TO.P,U1,28,IO17*%
%TO.N,unconnected-(U1-IO17-Pad28)*%
X166165000Y-133167500D03*
%TO.P,U1,29,IO5*%
%TO.N,/SPI_CS_SD*%
X167435000Y-133167500D03*
%TO.P,U1,30,IO18*%
%TO.N,/SPI_MISO*%
X168705000Y-133167500D03*
%TO.P,U1,31,IO19*%
%TO.N,/SPI_SCK*%
X169975000Y-133167500D03*
%TO.P,U1,32,NC*%
%TO.N,unconnected-(U1-NC-Pad32)*%
X171245000Y-133167500D03*
%TO.P,U1,33,IO21*%
%TO.N,/I2C_SDA*%
X172515000Y-133167500D03*
%TO.P,U1,34,RXD0/IO3*%
%TO.N,unconnected-(U1-RXD0{slash}IO3-Pad34)*%
X173785000Y-133167500D03*
%TO.P,U1,35,TXD0/IO1*%
%TO.N,unconnected-(U1-TXD0{slash}IO1-Pad35)*%
X175055000Y-133167500D03*
%TO.P,U1,36,IO22*%
%TO.N,/I2C_SCL*%
X176325000Y-133167500D03*
%TO.P,U1,37,IO23*%
%TO.N,/SPI_MOSI*%
X177595000Y-133167500D03*
%TO.P,U1,38,GND*%
%TO.N,GND*%
X178865000Y-133167500D03*
D33*
%TO.P,U1,39,GND*%
X173050000Y-122212500D03*
D34*
X172287500Y-122212500D03*
D33*
X171525000Y-122212500D03*
D34*
X170762500Y-122212500D03*
D33*
X170000000Y-122212500D03*
D34*
X173050000Y-122975000D03*
X171525000Y-122975000D03*
X170000000Y-122975000D03*
D33*
X173050000Y-123737500D03*
D34*
X172287500Y-123737500D03*
D33*
X171525000Y-123737500D03*
D35*
X171525000Y-123737500D03*
D34*
X170762500Y-123737500D03*
D33*
X170000000Y-123737500D03*
D34*
X173050000Y-124500000D03*
X171525000Y-124500000D03*
X170000000Y-124500000D03*
D33*
X173050000Y-125262500D03*
D34*
X172287500Y-125262500D03*
D33*
X171525000Y-125262500D03*
D34*
X170762500Y-125262500D03*
D33*
X170000000Y-125262500D03*
%TD*%
D36*
%TO.P,BT1,1,+*%
%TO.N,/VBAT*%
X110545000Y-82200000D03*
D37*
%TO.P,BT1,2,-*%
%TO.N,GND*%
X183445000Y-82200000D03*
%TD*%
D10*
%TO.P,D_G1,1,K*%
%TO.N,GND*%
X156320000Y-132000000D03*
%TO.P,D_G1,2,A*%
%TO.N,Net-(D_G1-A)*%
X155680000Y-132000000D03*
%TD*%
D13*
%TO.P,C_RTC1,1*%
%TO.N,GND*%
X156000000Y-117680000D03*
%TO.P,C_RTC1,2*%
%TO.N,+3V3*%
X156000000Y-118320000D03*
%TD*%
D12*
%TO.P,C_LUX1,1*%
%TO.N,+3V3*%
X160680000Y-144500000D03*
%TO.P,C_LUX1,2*%
%TO.N,GND*%
X161320000Y-144500000D03*
%TD*%
D38*
%TO.P,U_MIC1,1,+*%
%TO.N,/MIC_IN_COUP*%
X166912500Y-100235000D03*
%TO.P,U_MIC1,2,V-*%
%TO.N,GND*%
X167862500Y-100235000D03*
%TO.P,U_MIC1,3,-*%
%TO.N,Net-(U_MIC1--)*%
X168812500Y-100235000D03*
%TO.P,U_MIC1,4*%
%TO.N,/MIC_AMP_OUT*%
X168812500Y-97960000D03*
%TO.P,U_MIC1,5,V+*%
%TO.N,+3V3*%
X166912500Y-97960000D03*
%TD*%
D10*
%TO.P,R_CFG1,1*%
%TO.N,/BTN_CFG*%
X143130000Y-142040000D03*
%TO.P,R_CFG1,2*%
%TO.N,+3V3*%
X142490000Y-142040000D03*
%TD*%
D39*
%TO.P,U_CLK1,1,32KHZ*%
%TO.N,unconnected-(U_CLK1-32KHZ-Pad1)*%
X156945000Y-120350000D03*
%TO.P,U_CLK1,2,VCC*%
%TO.N,+3V3*%
X155675000Y-120350000D03*
%TO.P,U_CLK1,3,~{INT}/SQW*%
%TO.N,Net-(U1-IO27)*%
X154405000Y-120350000D03*
%TO.P,U_CLK1,4,~{RST}*%
%TO.N,unconnected-(U_CLK1-~{RST}-Pad4)*%
X153135000Y-120350000D03*
%TO.P,U_CLK1,5,GND*%
%TO.N,GND*%
X151865000Y-120350000D03*
%TO.P,U_CLK1,6,GND*%
X150595000Y-120350000D03*
%TO.P,U_CLK1,7,GND*%
X149325000Y-120350000D03*
%TO.P,U_CLK1,8,GND*%
X148055000Y-120350000D03*
%TO.P,U_CLK1,9,GND*%
X148055000Y-129650000D03*
%TO.P,U_CLK1,10,GND*%
X149325000Y-129650000D03*
%TO.P,U_CLK1,11,GND*%
X150595000Y-129650000D03*
%TO.P,U_CLK1,12,GND*%
X151865000Y-129650000D03*
%TO.P,U_CLK1,13,GND*%
X153135000Y-129650000D03*
%TO.P,U_CLK1,14,VBAT*%
%TO.N,/VBAT*%
X154405000Y-129650000D03*
%TO.P,U_CLK1,15,SDA*%
%TO.N,/I2C_SDA*%
X155675000Y-129650000D03*
%TO.P,U_CLK1,16,SCL*%
%TO.N,/I2C_SCL*%
X156945000Y-129650000D03*
%TD*%
D40*
%TO.P,U_LUX1,1,VDD*%
%TO.N,+3V3*%
X160505000Y-143400000D03*
%TO.P,U_LUX1,2,NC*%
%TO.N,unconnected-(U_LUX1-NC-Pad2)*%
X161155000Y-143400000D03*
%TO.P,U_LUX1,3,GND*%
%TO.N,GND*%
X161805000Y-143400000D03*
%TO.P,U_LUX1,4,SCL*%
%TO.N,/I2C_SCL*%
X161805000Y-141600000D03*
%TO.P,U_LUX1,5,INT*%
%TO.N,unconnected-(U_LUX1-INT-Pad5)*%
X161155000Y-141600000D03*
%TO.P,U_LUX1,6,SDA*%
%TO.N,/I2C_SDA*%
X160505000Y-141600000D03*
%TD*%
D41*
%TO.P,U2,1,SDA*%
%TO.N,/I2C_SDA*%
X164500000Y-144650000D03*
%TO.P,U2,2,ADDR*%
%TO.N,GND*%
X164000000Y-144650000D03*
%TO.P,U2,3,ALERT*%
%TO.N,unconnected-(U2-ALERT-Pad3)*%
X163500000Y-144650000D03*
%TO.P,U2,4,SCL*%
%TO.N,/I2C_SCL*%
X163000000Y-144650000D03*
%TO.P,U2,5,VDD*%
%TO.N,+3V3*%
X163000000Y-147000000D03*
%TO.P,U2,6,~{RESET}*%
X163500000Y-147000000D03*
%TO.P,U2,7,R*%
%TO.N,unconnected-(U2-R-Pad7)*%
X164000000Y-147000000D03*
%TO.P,U2,8,VSS*%
%TO.N,GND*%
X164500000Y-147000000D03*
D42*
%TO.P,U2,9,VSS*%
X163750000Y-145825000D03*
%TD*%
D11*
%TO.P,C_SD2,1*%
%TO.N,GND*%
X160800001Y-149640000D03*
%TO.P,C_SD2,2*%
%TO.N,+3V3*%
X160800001Y-149000000D03*
%TD*%
D12*
%TO.P,R6,1*%
%TO.N,/VREF_MID*%
X167680000Y-101960000D03*
%TO.P,R6,2*%
%TO.N,Net-(U_MIC1--)*%
X168320000Y-101960000D03*
%TD*%
D43*
%TO.N,GND*%
X171505000Y-149500000D03*
X156500000Y-117000000D03*
X141451000Y-110192840D03*
X153801000Y-109892840D03*
X159000000Y-130000000D03*
X178865000Y-133167500D03*
X167000000Y-104500000D03*
X149325000Y-129650000D03*
X138250000Y-144020000D03*
X163750000Y-145825000D03*
X148055000Y-120350000D03*
X158470000Y-148175000D03*
X138250000Y-151980000D03*
X174005000Y-145350000D03*
X178865000Y-115667500D03*
X151801000Y-113392840D03*
X174005000Y-153650000D03*
X162000000Y-150000000D03*
X165500000Y-99500000D03*
X183445000Y-93945000D03*
X150335000Y-154325000D03*
X137500000Y-115500000D03*
X153135000Y-129650000D03*
X150595000Y-129650000D03*
X159500000Y-133500000D03*
X161105000Y-118707500D03*
X149325000Y-120350000D03*
X150595000Y-120350000D03*
X170500000Y-98000000D03*
X148055000Y-129650000D03*
X151865000Y-129650000D03*
%TO.N,/VBAT*%
X137301000Y-112892840D03*
X153500000Y-123000000D03*
X153000000Y-114000000D03*
X138801000Y-109892840D03*
%TO.N,/SPI_MOSI*%
X163500000Y-150000000D03*
X171000000Y-142500000D03*
%TO.N,/SPI_CS_SD*%
X160500000Y-156000000D03*
X167435000Y-135935000D03*
%TO.N,/SPI_SCK*%
X170000000Y-136000000D03*
X154101000Y-156601000D03*
%TO.N,/SPI_MISO*%
X150000000Y-151000000D03*
X152000000Y-148500000D03*
%TO.N,/I2C_SDA*%
X167101000Y-142000000D03*
X164500000Y-143000000D03*
X153500000Y-131500000D03*
X172500000Y-135000000D03*
%TO.N,/I2C_SCL*%
X158000000Y-131000000D03*
X174500000Y-131000000D03*
%TO.N,Net-(U1-IO27)*%
X159000000Y-119500000D03*
X159500000Y-117000000D03*
%TO.N,/ADC_VBAT*%
X157000000Y-114500000D03*
X154500000Y-111000000D03*
%TD*%
D44*
%TO.N,GND*%
X156000000Y-117680000D02*
X156000000Y-117500000D01*
X160319001Y-151193999D02*
X160600002Y-151475000D01*
X160600002Y-151475000D02*
X160800001Y-151475000D01*
X160319001Y-150121000D02*
X160319001Y-151193999D01*
X170500000Y-98000000D02*
X170960000Y-98460000D01*
X166500000Y-103780000D02*
X166500000Y-104000000D01*
X183445000Y-82200000D02*
X183445000Y-93945000D01*
X167862500Y-99572501D02*
X167289999Y-99000000D01*
X161805000Y-144015000D02*
X161320000Y-144500000D01*
X159000000Y-134000000D02*
X159500000Y-133500000D01*
X138801000Y-115392840D02*
X137607160Y-115392840D01*
X160800001Y-151475000D02*
X161025000Y-151475000D01*
X158000000Y-132000000D02*
X159000000Y-131000000D01*
X164500000Y-147000000D02*
X164500000Y-146575000D01*
X162000000Y-150500000D02*
X162000000Y-150000000D01*
X171525000Y-97460000D02*
X171040000Y-97460000D01*
X167289999Y-99000000D02*
X166000000Y-99000000D01*
X166000000Y-99000000D02*
X165500000Y-99500000D01*
X159000000Y-131000000D02*
X159000000Y-130000000D01*
X171040000Y-97460000D02*
X170500000Y-98000000D01*
X161025000Y-151475000D02*
X162000000Y-150500000D01*
X150621000Y-113392840D02*
X151801000Y-113392840D01*
X167500000Y-104000000D02*
X167500000Y-103625000D01*
X151865000Y-120350000D02*
X150595000Y-120350000D01*
X164500000Y-146575000D02*
X163750000Y-145825000D01*
X164000000Y-145575000D02*
X163750000Y-145825000D01*
X137607160Y-115392840D02*
X137500000Y-115500000D01*
X183445000Y-93945000D02*
X183500000Y-94000000D01*
X160800001Y-149640000D02*
X160319001Y-150121000D01*
X164000000Y-144650000D02*
X164000000Y-145575000D01*
X173625000Y-154030000D02*
X174005000Y-153650000D01*
X173625000Y-155300000D02*
X173625000Y-154030000D01*
X152941000Y-109892840D02*
X153801000Y-109892840D01*
X170960000Y-98460000D02*
X171525000Y-98460000D01*
X156000000Y-117500000D02*
X156500000Y-117000000D01*
X162645000Y-145825000D02*
X163750000Y-145825000D01*
X167862500Y-100235000D02*
X167862500Y-99572501D01*
X156320000Y-134000000D02*
X159000000Y-134000000D01*
X161320000Y-144500000D02*
X162645000Y-145825000D01*
X156320000Y-132000000D02*
X158000000Y-132000000D01*
X166500000Y-104000000D02*
X167000000Y-104500000D01*
X161805000Y-143400000D02*
X161805000Y-144015000D01*
X167000000Y-104500000D02*
X167500000Y-104000000D01*
%TO.N,/VBAT*%
X151952000Y-101201840D02*
X150801000Y-102352840D01*
X150736000Y-109892840D02*
X150736000Y-111506181D01*
X137481000Y-112892840D02*
X137301000Y-112892840D01*
X110545000Y-82200000D02*
X112496000Y-84151000D01*
X150736000Y-109892840D02*
X150736000Y-109692841D01*
X138801000Y-109892840D02*
X139051000Y-109642840D01*
X151952000Y-95198840D02*
X151952000Y-101201840D01*
X154405000Y-123905000D02*
X153500000Y-123000000D01*
X151952000Y-103503840D02*
X150801000Y-102352840D01*
X150005000Y-109161840D02*
X139532000Y-109161840D01*
X138481000Y-113892840D02*
X137481000Y-112892840D01*
X112496000Y-84151000D02*
X140904160Y-84151000D01*
X150736000Y-109892840D02*
X150005000Y-109161840D01*
X150736000Y-109692841D02*
X151918501Y-108510341D01*
X140904160Y-84151000D02*
X151952000Y-95198840D01*
X151952000Y-108476841D02*
X151952000Y-103503840D01*
X150736000Y-111506181D02*
X153000000Y-113770181D01*
X153000000Y-113770181D02*
X153000000Y-114000000D01*
X151918501Y-108510341D02*
X151952000Y-108476841D01*
X139532000Y-109161840D02*
X138801000Y-109892840D01*
X154405000Y-129650000D02*
X154405000Y-123905000D01*
%TO.N,+3V3*%
X160680000Y-143575000D02*
X160505000Y-143400000D01*
X156000000Y-120025000D02*
X155675000Y-120350000D01*
X142791001Y-141539000D02*
X143428870Y-141539000D01*
X174404000Y-146601000D02*
X174404000Y-152399000D01*
X159745000Y-150125000D02*
X153055130Y-150125000D01*
X159745000Y-149755000D02*
X159745000Y-150125000D01*
X161540000Y-97960000D02*
X166912500Y-97960000D01*
X159690500Y-118320000D02*
X160510500Y-117500000D01*
X160800001Y-147120001D02*
X160680000Y-147000000D01*
X172985000Y-153880000D02*
X172755000Y-153650000D01*
X172755000Y-144917914D02*
X179616000Y-138056914D01*
X163500000Y-147000000D02*
X163000000Y-147000000D01*
X162500000Y-104460000D02*
X162820000Y-104780000D01*
X152535000Y-150645130D02*
X152535000Y-154325000D01*
X143428870Y-141539000D02*
X152535000Y-150645130D01*
X167475000Y-143640000D02*
X167500000Y-143615000D01*
X172985000Y-155300000D02*
X168800000Y-155300000D01*
X174404000Y-152399000D02*
X173573914Y-152399000D01*
X160800001Y-149000000D02*
X161000000Y-149000000D01*
X162820000Y-104780000D02*
X165500000Y-104780000D01*
X161349000Y-98151000D02*
X161540000Y-97960000D01*
X149981000Y-113392840D02*
X146801000Y-113392840D01*
X160800001Y-149000000D02*
X160800001Y-147120001D01*
X163500000Y-147502000D02*
X163574000Y-147576000D01*
X161301001Y-150334000D02*
X160800001Y-150835000D01*
X163574000Y-147576000D02*
X164926000Y-147576000D01*
X156000000Y-118320000D02*
X156000000Y-120025000D01*
X153055130Y-150125000D02*
X152535000Y-150645130D01*
X149981000Y-113392840D02*
X149981000Y-113592839D01*
X160500000Y-149000000D02*
X159745000Y-149755000D01*
X172755000Y-145782086D02*
X173573914Y-146601000D01*
X166500000Y-146002000D02*
X166500000Y-143640000D01*
X142490000Y-141840001D02*
X142791001Y-141539000D01*
X172755000Y-153217914D02*
X172755000Y-153650000D01*
X163000000Y-147000000D02*
X160680000Y-147000000D01*
X164926000Y-147576000D02*
X166001000Y-146501000D01*
X156000000Y-118320000D02*
X159690500Y-118320000D01*
X160510500Y-117500000D02*
X176712500Y-117500000D01*
X179616000Y-118638500D02*
X177595000Y-116617500D01*
X173573914Y-146601000D02*
X174404000Y-146601000D01*
X154659870Y-117680000D02*
X154500000Y-117680000D01*
X141451000Y-112492840D02*
X147751000Y-112492840D01*
X160800001Y-149000000D02*
X160500000Y-149000000D01*
X155299870Y-118320000D02*
X154659870Y-117680000D01*
X149981000Y-113592839D02*
X154068161Y-117680000D01*
X172755000Y-145350000D02*
X172755000Y-145782086D01*
X154500000Y-117680000D02*
X154500000Y-112460000D01*
X176712500Y-117500000D02*
X177595000Y-116617500D01*
X179616000Y-138056914D02*
X179616000Y-118638500D01*
X160680000Y-144500000D02*
X160680000Y-143575000D01*
X166001000Y-146501000D02*
X166500000Y-146002000D01*
X173573914Y-152399000D02*
X172755000Y-153217914D01*
X162500000Y-104460000D02*
X161349000Y-103309000D01*
X161301001Y-149301001D02*
X161301001Y-150334000D01*
X142490000Y-142040000D02*
X142490000Y-141840001D01*
X168800000Y-155300000D02*
X166001000Y-152501000D01*
X177595000Y-116617500D02*
X177595000Y-115667500D01*
X177500000Y-115572500D02*
X177595000Y-115667500D01*
X161000000Y-149000000D02*
X161301001Y-149301001D01*
X156000000Y-118320000D02*
X155299870Y-118320000D01*
X160680000Y-144500000D02*
X160680000Y-147000000D01*
X148651000Y-113392840D02*
X147751000Y-112492840D01*
X166001000Y-152501000D02*
X166001000Y-146501000D01*
X161349000Y-103309000D02*
X161349000Y-98151000D01*
X154068161Y-117680000D02*
X154500000Y-117680000D01*
X163500000Y-147000000D02*
X163500000Y-147502000D01*
X166500000Y-143640000D02*
X167475000Y-143640000D01*
X177500000Y-114000000D02*
X177500000Y-115572500D01*
X149981000Y-113392840D02*
X148651000Y-113392840D01*
X172985000Y-155300000D02*
X172985000Y-153880000D01*
X154500000Y-112460000D02*
X162500000Y-104460000D01*
X172755000Y-145350000D02*
X172755000Y-144917914D01*
%TO.N,/MIC_ENV*%
X172165000Y-97260001D02*
X172165000Y-97460000D01*
X171364999Y-96460000D02*
X172165000Y-97260001D01*
X172165000Y-98460000D02*
X172165000Y-97460000D01*
X172000000Y-99295000D02*
X172165000Y-99130000D01*
X169475000Y-96460000D02*
X171364999Y-96460000D01*
X172165000Y-99130000D02*
X172165000Y-98460000D01*
%TO.N,/VREG_IN*%
X141451000Y-114792840D02*
X140041000Y-114792840D01*
X140851000Y-115392840D02*
X141451000Y-114792840D01*
X139121000Y-112892840D02*
X139121000Y-113892840D01*
X139441000Y-114212840D02*
X139441000Y-115392840D01*
X140041000Y-114792840D02*
X139441000Y-115392840D01*
X139121000Y-113892840D02*
X139441000Y-114212840D01*
%TO.N,/MIC_IN_COUP*%
X165500000Y-101460000D02*
X166320000Y-101460000D01*
X166320000Y-101460000D02*
X166500000Y-101640000D01*
X166500000Y-101640000D02*
X166500000Y-100647500D01*
X166500000Y-100647500D02*
X166912500Y-100235000D01*
%TO.N,/MIC_IN_AC*%
X163550000Y-102770000D02*
X164860000Y-101460000D01*
X162500000Y-101920000D02*
X163350000Y-102770000D01*
X163350000Y-102770000D02*
X163550000Y-102770000D01*
%TO.N,/VREF_MID*%
X166500000Y-103140000D02*
X166300001Y-103140000D01*
X167680000Y-102805000D02*
X167500000Y-102985000D01*
X166300001Y-103140000D02*
X165500000Y-103940001D01*
X166655000Y-102985000D02*
X166500000Y-103140000D01*
X165500000Y-103940001D02*
X165500000Y-104140000D01*
X167680000Y-101960000D02*
X167680000Y-102805000D01*
X166500000Y-102280000D02*
X166500000Y-103140000D01*
X167500000Y-102985000D02*
X166655000Y-102985000D01*
%TO.N,/VIN_5V*%
X142750000Y-98884340D02*
X137615660Y-98884340D01*
X144801000Y-100935340D02*
X147138500Y-100935340D01*
X144801000Y-100935340D02*
X142750000Y-98884340D01*
X137000000Y-111411840D02*
X138481000Y-112892840D01*
X147138500Y-100935340D02*
X150801000Y-97272840D01*
X137000000Y-99500000D02*
X137000000Y-111411840D01*
X137615660Y-98884340D02*
X137000000Y-99500000D01*
%TO.N,/MIC_AMP_OUT*%
X168812500Y-97960000D02*
X168812500Y-96482500D01*
X170000000Y-99140000D02*
X169992500Y-99140000D01*
X169992500Y-99140000D02*
X168812500Y-97960000D01*
X168812500Y-96482500D02*
X168835000Y-96460000D01*
%TO.N,Net-(D_G1-A)*%
X155680000Y-132000000D02*
X154845000Y-132000000D01*
%TO.N,Net-(D_R1-A)*%
X155680000Y-134000000D02*
X154820000Y-134000000D01*
%TO.N,Net-(U_CHG1-Pin_4)*%
X141450000Y-103584340D02*
X138801000Y-100935340D01*
X149492500Y-103584340D02*
X141450000Y-103584340D01*
X150801000Y-104892840D02*
X149492500Y-103584340D01*
%TO.N,/SPI_MOSI*%
X153986000Y-153224000D02*
X160276000Y-153224000D01*
X153635000Y-154325000D02*
X153635000Y-153575000D01*
X153635000Y-153575000D02*
X153986000Y-153224000D01*
X160276000Y-153224000D02*
X163500000Y-150000000D01*
X177595000Y-135905000D02*
X171000000Y-142500000D01*
X177595000Y-133167500D02*
X177595000Y-135905000D01*
%TO.N,/SPI_CS_SD*%
X167435000Y-133167500D02*
X167435000Y-135935000D01*
X155660000Y-156000000D02*
X154735000Y-155075000D01*
X154735000Y-155075000D02*
X154735000Y-154325000D01*
X160500000Y-156000000D02*
X155660000Y-156000000D01*
%TO.N,/SPI_SCK*%
X169975000Y-133167500D02*
X169975000Y-135975000D01*
X154101000Y-156601000D02*
X152961000Y-156601000D01*
X169975000Y-135975000D02*
X170000000Y-136000000D01*
X151435000Y-155075000D02*
X151435000Y-154325000D01*
X152961000Y-156601000D02*
X151435000Y-155075000D01*
%TO.N,/SPI_MISO*%
X160106076Y-140573000D02*
X152179076Y-148500000D01*
X149235000Y-154325000D02*
X149235000Y-151765000D01*
X149235000Y-151765000D02*
X150000000Y-151000000D01*
X163837000Y-140573000D02*
X160106076Y-140573000D01*
X152000000Y-148500000D02*
X152179076Y-148500000D01*
X168705000Y-135705000D02*
X163837000Y-140573000D01*
X168705000Y-133167500D02*
X168705000Y-135705000D01*
%TO.N,/I2C_SDA*%
X164500000Y-144650000D02*
X164500000Y-144148000D01*
X154500000Y-131500000D02*
X153500000Y-131500000D01*
X167500000Y-142975000D02*
X167475000Y-142975000D01*
X164500000Y-144148000D02*
X163926000Y-143574000D01*
X160806001Y-142226000D02*
X160505000Y-141924999D01*
X155675000Y-130325000D02*
X154500000Y-131500000D01*
X163926000Y-143574000D02*
X164500000Y-143000000D01*
X167475000Y-142975000D02*
X167101000Y-142601000D01*
X172500000Y-135000000D02*
X172515000Y-134985000D01*
X160505000Y-141924999D02*
X160505000Y-141600000D01*
X162578000Y-142226000D02*
X160806001Y-142226000D01*
X169005000Y-144280001D02*
X167699999Y-142975000D01*
X155675000Y-129650000D02*
X155675000Y-130325000D01*
X167699999Y-142975000D02*
X167500000Y-142975000D01*
X163926000Y-143574000D02*
X162578000Y-142226000D01*
X172515000Y-133167500D02*
X172515000Y-134985000D01*
X167101000Y-142601000D02*
X167101000Y-142000000D01*
X169005000Y-145350000D02*
X169005000Y-144280001D01*
%TO.N,/I2C_SCL*%
X163000000Y-144650000D02*
X163000000Y-143215100D01*
X165301000Y-141399000D02*
X165100000Y-141600000D01*
X176325000Y-134117500D02*
X176325000Y-133167500D01*
X170255000Y-145350000D02*
X170255000Y-144304057D01*
X170255000Y-144304057D02*
X167349943Y-141399000D01*
X160272176Y-140974000D02*
X161503999Y-140974000D01*
X160639901Y-142627000D02*
X160054000Y-142041099D01*
X175107500Y-131000000D02*
X176325000Y-132217500D01*
X167349943Y-141399000D02*
X165301000Y-141399000D01*
X169043500Y-141399000D02*
X176325000Y-134117500D01*
X158000000Y-130705000D02*
X158000000Y-131000000D01*
X160054000Y-141192176D02*
X160272176Y-140974000D01*
X176325000Y-132217500D02*
X176325000Y-133167500D01*
X161805000Y-141600000D02*
X165100000Y-141600000D01*
X162411900Y-142627000D02*
X160639901Y-142627000D01*
X160054000Y-142041099D02*
X160054000Y-141192176D01*
X156945000Y-129650000D02*
X158000000Y-130705000D01*
X161805000Y-141275001D02*
X161805000Y-141600000D01*
X165100000Y-141600000D02*
X166500000Y-143000000D01*
X167349943Y-141399000D02*
X169043500Y-141399000D01*
X174500000Y-131000000D02*
X175107500Y-131000000D01*
X163000000Y-143215100D02*
X162411900Y-142627000D01*
X161503999Y-140974000D02*
X161805000Y-141275001D01*
%TO.N,Net-(U_MIC1--)*%
X169267500Y-99780000D02*
X168812500Y-100235000D01*
X170000000Y-99780000D02*
X169267500Y-99780000D01*
X168812500Y-101467500D02*
X168320000Y-101960000D01*
X168812500Y-100235000D02*
X168812500Y-101467500D01*
%TO.N,/ADC_MIC*%
X172000000Y-99935000D02*
X172000000Y-115152500D01*
X172000000Y-115152500D02*
X172515000Y-115667500D01*
%TO.N,/BTN_CFG*%
X141959000Y-141771130D02*
X149229130Y-134501000D01*
X142750000Y-144020000D02*
X141959000Y-143229000D01*
X141959000Y-143229000D02*
X141959000Y-141771130D01*
X149229130Y-134501000D02*
X161021500Y-134501000D01*
X143130000Y-143640000D02*
X143130000Y-142040000D01*
X142750000Y-144020000D02*
X143130000Y-143640000D01*
X161021500Y-134501000D02*
X162355000Y-133167500D01*
X142750000Y-151980000D02*
X142750000Y-144020000D01*
%TO.N,Net-(U1-EN)*%
X176325000Y-114535000D02*
X176325000Y-115667500D01*
X176860000Y-114000000D02*
X176325000Y-114535000D01*
%TO.N,/LED_G*%
X154205000Y-132199999D02*
X154506001Y-132501000D01*
X158741500Y-132501000D02*
X161105000Y-130137500D01*
X154205000Y-132000000D02*
X154205000Y-132199999D01*
X154506001Y-132501000D02*
X158741500Y-132501000D01*
%TO.N,/LED_R*%
X154521130Y-133499000D02*
X154180000Y-133840130D01*
X159693100Y-132116500D02*
X158310600Y-133499000D01*
X163625000Y-132635500D02*
X163106000Y-132116500D01*
X154180000Y-133840130D02*
X154180000Y-134000000D01*
X158310600Y-133499000D02*
X154521130Y-133499000D01*
X163106000Y-132116500D02*
X159693100Y-132116500D01*
X163625000Y-133167500D02*
X163625000Y-132635500D01*
%TO.N,Net-(U1-IO27)*%
X164895000Y-116199500D02*
X164094500Y-117000000D01*
X154405000Y-120350000D02*
X154405000Y-121374999D01*
X157285968Y-121676000D02*
X159000000Y-119961968D01*
X154405000Y-121374999D02*
X154706001Y-121676000D01*
X164895000Y-115667500D02*
X164895000Y-116199500D01*
X159000000Y-119961968D02*
X159000000Y-119500000D01*
X154405000Y-118415000D02*
X154500000Y-118320000D01*
X154706001Y-121676000D02*
X157285968Y-121676000D01*
X154405000Y-120350000D02*
X154405000Y-118415000D01*
X164094500Y-117000000D02*
X159500000Y-117000000D01*
%TO.N,/ADC_VBAT*%
X153208161Y-111000000D02*
X154500000Y-111000000D01*
X152301000Y-109892840D02*
X151376000Y-109892840D01*
X171245000Y-115667500D02*
X171245000Y-115135500D01*
X170609500Y-114500000D02*
X157000000Y-114500000D01*
X152301000Y-110092839D02*
X153208161Y-111000000D01*
X171245000Y-115135500D02*
X170609500Y-114500000D01*
X152301000Y-109892840D02*
X152301000Y-110092839D01*
%TD*%
M02*
