%TF.GenerationSoftware,KiCad,Pcbnew,9.0.6*%
%TF.CreationDate,2026-01-28T16:00:35+00:00*%
%TF.ProjectId,RoomHealthBlackBox,526f6f6d-4865-4616-9c74-68426c61636b,rev?*%
%TF.SameCoordinates,Original*%
%TF.FileFunction,Copper,L2,Bot*%
%TF.FilePolarity,Positive*%
%FSLAX46Y46*%
G04 Gerber Fmt 4.6, Leading zero omitted, Abs format (unit mm)*
G04 Created by KiCad (PCBNEW 9.0.6) date 2026-01-28 16:00:35*
%MOMM*%
%LPD*%
G01*
G04 APERTURE LIST*
G04 Aperture macros list*
%AMRoundRect*
0 Rectangle with rounded corners*
0 $1 Rounding radius*
0 $2 $3 $4 $5 $6 $7 $8 $9 X,Y pos of 4 corners*
0 Add a 4 corners polygon primitive as box body*
4,1,4,$2,$3,$4,$5,$6,$7,$8,$9,$2,$3,0*
0 Add four circle primitives for the rounded corners*
1,1,$1+$1,$2,$3*
1,1,$1+$1,$4,$5*
1,1,$1+$1,$6,$7*
1,1,$1+$1,$8,$9*
0 Add four rect primitives between the rounded corners*
20,1,$1+$1,$2,$3,$4,$5,0*
20,1,$1+$1,$4,$5,$6,$7,0*
20,1,$1+$1,$6,$7,$8,$9,0*
20,1,$1+$1,$8,$9,$2,$3,0*%
G04 Aperture macros list end*
%TA.AperFunction,ComponentPad*%
%ADD10R,1.700000X1.700000*%
%TD*%
%TA.AperFunction,ComponentPad*%
%ADD11C,1.700000*%
%TD*%
%TA.AperFunction,ComponentPad*%
%ADD12R,3.500000X3.500000*%
%TD*%
%TA.AperFunction,ComponentPad*%
%ADD13RoundRect,0.750000X-0.750000X-1.000000X0.750000X-1.000000X0.750000X1.000000X-0.750000X1.000000X0*%
%TD*%
%TA.AperFunction,ComponentPad*%
%ADD14RoundRect,0.875000X-0.875000X-0.875000X0.875000X-0.875000X0.875000X0.875000X-0.875000X0.875000X0*%
%TD*%
%TA.AperFunction,HeatsinkPad*%
%ADD15C,0.600000*%
%TD*%
%TA.AperFunction,ComponentPad*%
%ADD16RoundRect,0.249999X-1.250001X-1.250001X1.250001X-1.250001X1.250001X1.250001X-1.250001X1.250001X0*%
%TD*%
%TA.AperFunction,ComponentPad*%
%ADD17C,3.000000*%
%TD*%
%TA.AperFunction,ViaPad*%
%ADD18C,0.600000*%
%TD*%
%TA.AperFunction,Conductor*%
%ADD19C,0.200000*%
%TD*%
G04 APERTURE END LIST*
D10*
%TO.P,U_CHG1,1,Pin_1*%
%TO.N,/VIN_5V*%
X150801000Y-97272840D03*
D11*
%TO.P,U_CHG1,2,Pin_2*%
%TO.N,GND*%
X150801000Y-99812840D03*
%TO.P,U_CHG1,3,Pin_3*%
%TO.N,/VBAT*%
X150801000Y-102352840D03*
%TO.P,U_CHG1,4,Pin_4*%
%TO.N,Net-(U_CHG1-Pin_4)*%
X150801000Y-104892840D03*
%TD*%
D10*
%TO.P,J_MIC1,1,Pin_1*%
%TO.N,GND*%
X162500000Y-99380000D03*
D11*
%TO.P,J_MIC1,2,Pin_2*%
%TO.N,/MIC_IN_AC*%
X162500000Y-101920000D03*
%TO.P,J_MIC1,3,Pin_3*%
%TO.N,+3V3*%
X162500000Y-104460000D03*
%TO.P,J_MIC1,4*%
%TO.N,N/C*%
X162500000Y-107000000D03*
%TD*%
D12*
%TO.P,J1,1*%
%TO.N,/VIN_5V*%
X144801000Y-100935340D03*
D13*
%TO.P,J1,2*%
%TO.N,Net-(U_CHG1-Pin_4)*%
X138801000Y-100935340D03*
D14*
%TO.P,J1,3*%
%TO.N,N/C*%
X141801000Y-105635340D03*
%TD*%
D15*
%TO.P,U1,39,GND*%
%TO.N,GND*%
X172287500Y-122212500D03*
X170762500Y-122212500D03*
X173050000Y-122975000D03*
X171525000Y-122975000D03*
X170000000Y-122975000D03*
X172287500Y-123737500D03*
X170762500Y-123737500D03*
X173050000Y-124500000D03*
X171525000Y-124500000D03*
X170000000Y-124500000D03*
X172287500Y-125262500D03*
X170762500Y-125262500D03*
%TD*%
D16*
%TO.P,BT1,1,+*%
%TO.N,/VBAT*%
X110545000Y-82200000D03*
D17*
%TO.P,BT1,2,-*%
%TO.N,GND*%
X183445000Y-82200000D03*
%TD*%
D18*
%TO.N,GND*%
X171505000Y-149500000D03*
X156500000Y-117000000D03*
X141451000Y-110192840D03*
X153801000Y-109892840D03*
X159000000Y-130000000D03*
X178865000Y-133167500D03*
X167000000Y-104500000D03*
X149325000Y-129650000D03*
X138250000Y-144020000D03*
X163750000Y-145825000D03*
X148055000Y-120350000D03*
X158470000Y-148175000D03*
X138250000Y-151980000D03*
X174005000Y-145350000D03*
X178865000Y-115667500D03*
X151801000Y-113392840D03*
X174005000Y-153650000D03*
X162000000Y-150000000D03*
X165500000Y-99500000D03*
X183445000Y-93945000D03*
X150335000Y-154325000D03*
X137500000Y-115500000D03*
X153135000Y-129650000D03*
X150595000Y-129650000D03*
X159500000Y-133500000D03*
X161105000Y-118707500D03*
X149325000Y-120350000D03*
X150595000Y-120350000D03*
X170500000Y-98000000D03*
X148055000Y-129650000D03*
X151865000Y-129650000D03*
%TO.N,/VBAT*%
X137301000Y-112892840D03*
X153500000Y-123000000D03*
X153000000Y-114000000D03*
X138801000Y-109892840D03*
%TO.N,/SPI_MOSI*%
X163500000Y-150000000D03*
X171000000Y-142500000D03*
%TO.N,/SPI_CS_SD*%
X160500000Y-156000000D03*
X167435000Y-135935000D03*
%TO.N,/SPI_SCK*%
X170000000Y-136000000D03*
X154101000Y-156601000D03*
%TO.N,/SPI_MISO*%
X150000000Y-151000000D03*
X152000000Y-148500000D03*
%TO.N,/I2C_SDA*%
X167101000Y-142000000D03*
X164500000Y-143000000D03*
X153500000Y-131500000D03*
X172500000Y-135000000D03*
%TO.N,/I2C_SCL*%
X158000000Y-131000000D03*
X174500000Y-131000000D03*
%TO.N,Net-(U1-IO27)*%
X159000000Y-119500000D03*
X159500000Y-117000000D03*
%TO.N,/ADC_VBAT*%
X157000000Y-114500000D03*
X154500000Y-111000000D03*
%TD*%
D19*
%TO.N,/VBAT*%
X137301000Y-111392840D02*
X137301000Y-112892840D01*
X152000000Y-114500000D02*
X152000000Y-121500000D01*
X152000000Y-121500000D02*
X153500000Y-123000000D01*
X153000000Y-114000000D02*
X152500000Y-114500000D01*
X152500000Y-114500000D02*
X152000000Y-114500000D01*
X138801000Y-109892840D02*
X137301000Y-111392840D01*
%TO.N,/SPI_MOSI*%
X171000000Y-142500000D02*
X163500000Y-150000000D01*
%TO.N,/SPI_CS_SD*%
X167435000Y-135935000D02*
X160500000Y-142870000D01*
X160500000Y-142870000D02*
X160500000Y-156000000D01*
%TO.N,/SPI_SCK*%
X160748943Y-156601000D02*
X154101000Y-156601000D01*
X161101000Y-144899000D02*
X161101000Y-156248943D01*
X161101000Y-156248943D02*
X160748943Y-156601000D01*
X170000000Y-136000000D02*
X161101000Y-144899000D01*
%TO.N,/SPI_MISO*%
X152000000Y-149000000D02*
X152000000Y-148500000D01*
X150000000Y-151000000D02*
X152000000Y-149000000D01*
%TO.N,/I2C_SDA*%
X153500000Y-131500000D02*
X157000000Y-135000000D01*
X172500000Y-136601000D02*
X167101000Y-142000000D01*
X164500000Y-143000000D02*
X165500000Y-142000000D01*
X172500000Y-135000000D02*
X172500000Y-136601000D01*
X165500000Y-142000000D02*
X167101000Y-142000000D01*
X157000000Y-135000000D02*
X172500000Y-135000000D01*
%TO.N,/I2C_SCL*%
X158000000Y-131000000D02*
X174500000Y-131000000D01*
%TO.N,Net-(U1-IO27)*%
X159000000Y-119500000D02*
X159000000Y-117500000D01*
X159000000Y-117500000D02*
X159500000Y-117000000D01*
%TO.N,/ADC_VBAT*%
X154500000Y-111000000D02*
X157000000Y-113500000D01*
X157000000Y-113500000D02*
X157000000Y-114500000D01*
%TD*%
%TA.AperFunction,Conductor*%
%TO.N,GND*%
G36*
X186442539Y-93519685D02*
G01*
X186488294Y-93572489D01*
X186499500Y-93624000D01*
X186499500Y-100293500D01*
X186479815Y-100360539D01*
X186427011Y-100406294D01*
X186375500Y-100417500D01*
X180415000Y-100417500D01*
X180415000Y-148417500D01*
X186375500Y-148417500D01*
X186442539Y-148437185D01*
X186488294Y-148489989D01*
X186499500Y-148541500D01*
X186499500Y-160381051D01*
X186479815Y-160448090D01*
X186427011Y-160493845D01*
X186376607Y-160505046D01*
X132120443Y-160989475D01*
X132053231Y-160970390D01*
X132007006Y-160917996D01*
X131995340Y-160866399D01*
X131922213Y-150921153D01*
X149199500Y-150921153D01*
X149199500Y-151078846D01*
X149230261Y-151233489D01*
X149230264Y-151233501D01*
X149290602Y-151379172D01*
X149290609Y-151379185D01*
X149378210Y-151510288D01*
X149378213Y-151510292D01*
X149489707Y-151621786D01*
X149489711Y-151621789D01*
X149620814Y-151709390D01*
X149620827Y-151709397D01*
X149766498Y-151769735D01*
X149766503Y-151769737D01*
X149921153Y-151800499D01*
X149921156Y-151800500D01*
X149921158Y-151800500D01*
X150078844Y-151800500D01*
X150078845Y-151800499D01*
X150233497Y-151769737D01*
X150379179Y-151709394D01*
X150510289Y-151621789D01*
X150621789Y-151510289D01*
X150709394Y-151379179D01*
X150769737Y-151233497D01*
X150789113Y-151136085D01*
X150800638Y-151078150D01*
X150833023Y-151016239D01*
X150834519Y-151014715D01*
X152358506Y-149490727D01*
X152358511Y-149490724D01*
X152368714Y-149480520D01*
X152368716Y-149480520D01*
X152480520Y-149368716D01*
X152537665Y-149269737D01*
X152559577Y-149231785D01*
X152600500Y-149079057D01*
X152600500Y-149079048D01*
X152601561Y-149070997D01*
X152603018Y-149071188D01*
X152620185Y-149012726D01*
X152621398Y-149010874D01*
X152709390Y-148879185D01*
X152709390Y-148879184D01*
X152709394Y-148879179D01*
X152769737Y-148733497D01*
X152800500Y-148578842D01*
X152800500Y-148421158D01*
X152800500Y-148421155D01*
X152800499Y-148421153D01*
X152769738Y-148266510D01*
X152769737Y-148266503D01*
X152769735Y-148266498D01*
X152709397Y-148120827D01*
X152709390Y-148120814D01*
X152621789Y-147989711D01*
X152621786Y-147989707D01*
X152510292Y-147878213D01*
X152510288Y-147878210D01*
X152379185Y-147790609D01*
X152379172Y-147790602D01*
X152233501Y-147730264D01*
X152233489Y-147730261D01*
X152078845Y-147699500D01*
X152078842Y-147699500D01*
X151921158Y-147699500D01*
X151921155Y-147699500D01*
X151766510Y-147730261D01*
X151766498Y-147730264D01*
X151620827Y-147790602D01*
X151620814Y-147790609D01*
X151489711Y-147878210D01*
X151489707Y-147878213D01*
X151378213Y-147989707D01*
X151378210Y-147989711D01*
X151290609Y-148120814D01*
X151290602Y-148120827D01*
X151230264Y-148266498D01*
X151230261Y-148266510D01*
X151199500Y-148421153D01*
X151199500Y-148578846D01*
X151230261Y-148733489D01*
X151230264Y-148733501D01*
X151253328Y-148789182D01*
X151260797Y-148858651D01*
X151229522Y-148921130D01*
X151226448Y-148924315D01*
X149985339Y-150165425D01*
X149924016Y-150198910D01*
X149921850Y-150199361D01*
X149766508Y-150230261D01*
X149766498Y-150230264D01*
X149620827Y-150290602D01*
X149620814Y-150290609D01*
X149489711Y-150378210D01*
X149489707Y-150378213D01*
X149378213Y-150489707D01*
X149378210Y-150489711D01*
X149290609Y-150620814D01*
X149290602Y-150620827D01*
X149230264Y-150766498D01*
X149230261Y-150766510D01*
X149199500Y-150921153D01*
X131922213Y-150921153D01*
X131778831Y-131421153D01*
X152699500Y-131421153D01*
X152699500Y-131578846D01*
X152730261Y-131733489D01*
X152730264Y-131733501D01*
X152790602Y-131879172D01*
X152790609Y-131879185D01*
X152878210Y-132010288D01*
X152878213Y-132010292D01*
X152989707Y-132121786D01*
X152989711Y-132121789D01*
X153120814Y-132209390D01*
X153120827Y-132209397D01*
X153266498Y-132269735D01*
X153266503Y-132269737D01*
X153331147Y-132282595D01*
X153421849Y-132300638D01*
X153483760Y-132333023D01*
X153485339Y-132334574D01*
X156515139Y-135364374D01*
X156515149Y-135364385D01*
X156519479Y-135368715D01*
X156519480Y-135368716D01*
X156631284Y-135480520D01*
X156631286Y-135480521D01*
X156631290Y-135480524D01*
X156768209Y-135559573D01*
X156768216Y-135559577D01*
X156880019Y-135589534D01*
X156920942Y-135600500D01*
X156920943Y-135600500D01*
X166534259Y-135600500D01*
X166554474Y-135606435D01*
X166575513Y-135607564D01*
X166587326Y-135616082D01*
X166601298Y-135620185D01*
X166615092Y-135636104D01*
X166632185Y-135648430D01*
X166637518Y-135661985D01*
X166647053Y-135672989D01*
X166650051Y-135693840D01*
X166657766Y-135713449D01*
X166656436Y-135738246D01*
X166656997Y-135742147D01*
X166655876Y-135748691D01*
X166655876Y-135748692D01*
X166634361Y-135856850D01*
X166601976Y-135918761D01*
X166600425Y-135920339D01*
X160019481Y-142501282D01*
X160019475Y-142501290D01*
X159976075Y-142576463D01*
X159976075Y-142576464D01*
X159940423Y-142638214D01*
X159940423Y-142638215D01*
X159899499Y-142790943D01*
X159899499Y-142790945D01*
X159899499Y-142959046D01*
X159899500Y-142959059D01*
X159899500Y-155420234D01*
X159879815Y-155487273D01*
X159878602Y-155489125D01*
X159790609Y-155620814D01*
X159790602Y-155620827D01*
X159730264Y-155766498D01*
X159730261Y-155766510D01*
X159703571Y-155900691D01*
X159671186Y-155962602D01*
X159610471Y-155997176D01*
X159581954Y-156000500D01*
X154680766Y-156000500D01*
X154613727Y-155980815D01*
X154611875Y-155979602D01*
X154480185Y-155891609D01*
X154480172Y-155891602D01*
X154334501Y-155831264D01*
X154334489Y-155831261D01*
X154179845Y-155800500D01*
X154179842Y-155800500D01*
X154022158Y-155800500D01*
X154022155Y-155800500D01*
X153867510Y-155831261D01*
X153867498Y-155831264D01*
X153721827Y-155891602D01*
X153721814Y-155891609D01*
X153590711Y-155979210D01*
X153590707Y-155979213D01*
X153479213Y-156090707D01*
X153479210Y-156090711D01*
X153391609Y-156221814D01*
X153391602Y-156221827D01*
X153331264Y-156367498D01*
X153331261Y-156367510D01*
X153300500Y-156522153D01*
X153300500Y-156679846D01*
X153331261Y-156834489D01*
X153331264Y-156834501D01*
X153391602Y-156980172D01*
X153391609Y-156980185D01*
X153479210Y-157111288D01*
X153479213Y-157111292D01*
X153590707Y-157222786D01*
X153590711Y-157222789D01*
X153721814Y-157310390D01*
X153721827Y-157310397D01*
X153867498Y-157370735D01*
X153867503Y-157370737D01*
X154022153Y-157401499D01*
X154022156Y-157401500D01*
X154022158Y-157401500D01*
X154179844Y-157401500D01*
X154179845Y-157401499D01*
X154334497Y-157370737D01*
X154480179Y-157310394D01*
X154480185Y-157310390D01*
X154611875Y-157222398D01*
X154678553Y-157201520D01*
X154680766Y-157201500D01*
X160662274Y-157201500D01*
X160662290Y-157201501D01*
X160669886Y-157201501D01*
X160827997Y-157201501D01*
X160828000Y-157201501D01*
X160980728Y-157160577D01*
X161030847Y-157131639D01*
X161117659Y-157081520D01*
X161229463Y-156969716D01*
X161229464Y-156969714D01*
X161581520Y-156617659D01*
X161660577Y-156480728D01*
X161701501Y-156328000D01*
X161701501Y-156169885D01*
X161701501Y-156162290D01*
X161701500Y-156162272D01*
X161701500Y-149921153D01*
X162699500Y-149921153D01*
X162699500Y-150078846D01*
X162730261Y-150233489D01*
X162730264Y-150233501D01*
X162790602Y-150379172D01*
X162790609Y-150379185D01*
X162878210Y-150510288D01*
X162878213Y-150510292D01*
X162989707Y-150621786D01*
X162989711Y-150621789D01*
X163120814Y-150709390D01*
X163120827Y-150709397D01*
X163258683Y-150766498D01*
X163266503Y-150769737D01*
X163421153Y-150800499D01*
X163421156Y-150800500D01*
X163421158Y-150800500D01*
X163578844Y-150800500D01*
X163578845Y-150800499D01*
X163733497Y-150769737D01*
X163879179Y-150709394D01*
X164010289Y-150621789D01*
X164121789Y-150510289D01*
X164209394Y-150379179D01*
X164269737Y-150233497D01*
X164289113Y-150136085D01*
X164300638Y-150078150D01*
X164333023Y-150016239D01*
X164334518Y-150014716D01*
X171014664Y-143334571D01*
X171075985Y-143301088D01*
X171078152Y-143300637D01*
X171078841Y-143300500D01*
X171078842Y-143300500D01*
X171233497Y-143269737D01*
X171379179Y-143209394D01*
X171510289Y-143121789D01*
X171621789Y-143010289D01*
X171709394Y-142879179D01*
X171769737Y-142733497D01*
X171800500Y-142578842D01*
X171800500Y-142421158D01*
X171800500Y-142421155D01*
X171800499Y-142421153D01*
X171769738Y-142266510D01*
X171769738Y-142266508D01*
X171769737Y-142266503D01*
X171756062Y-142233489D01*
X171709397Y-142120827D01*
X171709390Y-142120814D01*
X171621789Y-141989711D01*
X171621786Y-141989707D01*
X171510292Y-141878213D01*
X171510288Y-141878210D01*
X171379185Y-141790609D01*
X171379172Y-141790602D01*
X171233501Y-141730264D01*
X171233489Y-141730261D01*
X171078845Y-141699500D01*
X171078842Y-141699500D01*
X170921158Y-141699500D01*
X170921155Y-141699500D01*
X170766510Y-141730261D01*
X170766498Y-141730264D01*
X170620827Y-141790602D01*
X170620814Y-141790609D01*
X170489711Y-141878210D01*
X170489707Y-141878213D01*
X170378213Y-141989707D01*
X170378210Y-141989711D01*
X170290609Y-142120814D01*
X170290602Y-142120827D01*
X170230264Y-142266498D01*
X170230261Y-142266508D01*
X170199362Y-142421848D01*
X170166977Y-142483759D01*
X170165426Y-142485337D01*
X163485339Y-149165425D01*
X163424016Y-149198910D01*
X163421850Y-149199361D01*
X163266508Y-149230261D01*
X163266498Y-149230264D01*
X163120827Y-149290602D01*
X163120814Y-149290609D01*
X162989711Y-149378210D01*
X162989707Y-149378213D01*
X162878213Y-149489707D01*
X162878210Y-149489711D01*
X162790609Y-149620814D01*
X162790602Y-149620827D01*
X162730264Y-149766498D01*
X162730261Y-149766510D01*
X162699500Y-149921153D01*
X161701500Y-149921153D01*
X161701500Y-145199096D01*
X161721185Y-145132057D01*
X161737814Y-145111420D01*
X163565496Y-143283737D01*
X163626817Y-143250254D01*
X163696509Y-143255238D01*
X163752442Y-143297110D01*
X163767736Y-143323967D01*
X163790604Y-143379175D01*
X163790609Y-143379185D01*
X163878210Y-143510288D01*
X163878213Y-143510292D01*
X163989707Y-143621786D01*
X163989711Y-143621789D01*
X164120814Y-143709390D01*
X164120827Y-143709397D01*
X164266498Y-143769735D01*
X164266503Y-143769737D01*
X164421153Y-143800499D01*
X164421156Y-143800500D01*
X164421158Y-143800500D01*
X164578844Y-143800500D01*
X164578845Y-143800499D01*
X164733497Y-143769737D01*
X164879179Y-143709394D01*
X165010289Y-143621789D01*
X165121789Y-143510289D01*
X165209394Y-143379179D01*
X165269737Y-143233497D01*
X165300500Y-143078842D01*
X165300638Y-143078150D01*
X165333023Y-143016239D01*
X165334514Y-143014720D01*
X165712417Y-142636819D01*
X165773740Y-142603334D01*
X165800098Y-142600500D01*
X166521234Y-142600500D01*
X166588273Y-142620185D01*
X166590125Y-142621398D01*
X166721814Y-142709390D01*
X166721827Y-142709397D01*
X166867498Y-142769735D01*
X166867503Y-142769737D01*
X167022153Y-142800499D01*
X167022156Y-142800500D01*
X167022158Y-142800500D01*
X167179844Y-142800500D01*
X167179845Y-142800499D01*
X167334497Y-142769737D01*
X167480179Y-142709394D01*
X167611289Y-142621789D01*
X167722789Y-142510289D01*
X167810394Y-142379179D01*
X167870737Y-142233497D01*
X167901500Y-142078842D01*
X167901638Y-142078150D01*
X167934023Y-142016239D01*
X167935518Y-142014716D01*
X172868713Y-137081521D01*
X172868716Y-137081520D01*
X172980520Y-136969716D01*
X173030639Y-136882904D01*
X173059577Y-136832785D01*
X173100501Y-136680057D01*
X173100501Y-136521943D01*
X173100501Y-136514348D01*
X173100500Y-136514330D01*
X173100500Y-135579765D01*
X173120185Y-135512726D01*
X173121398Y-135510874D01*
X173209390Y-135379185D01*
X173209390Y-135379184D01*
X173209394Y-135379179D01*
X173269737Y-135233497D01*
X173300500Y-135078842D01*
X173300500Y-134921158D01*
X173300500Y-134921155D01*
X173300499Y-134921153D01*
X173269738Y-134766510D01*
X173269737Y-134766503D01*
X173269735Y-134766498D01*
X173209397Y-134620827D01*
X173209390Y-134620814D01*
X173121789Y-134489711D01*
X173121786Y-134489707D01*
X173010292Y-134378213D01*
X173010288Y-134378210D01*
X172879185Y-134290609D01*
X172879172Y-134290602D01*
X172733501Y-134230264D01*
X172733489Y-134230261D01*
X172578845Y-134199500D01*
X172578842Y-134199500D01*
X172421158Y-134199500D01*
X172421155Y-134199500D01*
X172266510Y-134230261D01*
X172266498Y-134230264D01*
X172120827Y-134290602D01*
X172120814Y-134290609D01*
X171989125Y-134378602D01*
X171922447Y-134399480D01*
X171920234Y-134399500D01*
X157300097Y-134399500D01*
X157233058Y-134379815D01*
X157212416Y-134363181D01*
X154334574Y-131485339D01*
X154301089Y-131424016D01*
X154300638Y-131421849D01*
X154269738Y-131266510D01*
X154269737Y-131266503D01*
X154256062Y-131233489D01*
X154209397Y-131120827D01*
X154209390Y-131120814D01*
X154121790Y-130989712D01*
X154121784Y-130989705D01*
X154053232Y-130921153D01*
X157199500Y-130921153D01*
X157199500Y-131078846D01*
X157230261Y-131233489D01*
X157230264Y-131233501D01*
X157290602Y-131379172D01*
X157290609Y-131379185D01*
X157378210Y-131510288D01*
X157378213Y-131510292D01*
X157489707Y-131621786D01*
X157489711Y-131621789D01*
X157620814Y-131709390D01*
X157620827Y-131709397D01*
X157766498Y-131769735D01*
X157766503Y-131769737D01*
X157921153Y-131800499D01*
X157921156Y-131800500D01*
X157921158Y-131800500D01*
X158078844Y-131800500D01*
X158078845Y-131800499D01*
X158233497Y-131769737D01*
X158379179Y-131709394D01*
X158379185Y-131709390D01*
X158510875Y-131621398D01*
X158577553Y-131600520D01*
X158579766Y-131600500D01*
X173920234Y-131600500D01*
X173987273Y-131620185D01*
X173989125Y-131621398D01*
X174120814Y-131709390D01*
X174120827Y-131709397D01*
X174266498Y-131769735D01*
X174266503Y-131769737D01*
X174421153Y-131800499D01*
X174421156Y-131800500D01*
X174421158Y-131800500D01*
X174578844Y-131800500D01*
X174578845Y-131800499D01*
X174733497Y-131769737D01*
X174879179Y-131709394D01*
X175010289Y-131621789D01*
X175121789Y-131510289D01*
X175209394Y-131379179D01*
X175269737Y-131233497D01*
X175300500Y-131078842D01*
X175300500Y-130921158D01*
X175300500Y-130921155D01*
X175300499Y-130921153D01*
X175274531Y-130790606D01*
X175269737Y-130766503D01*
X175269735Y-130766498D01*
X175209397Y-130620827D01*
X175209390Y-130620814D01*
X175121789Y-130489711D01*
X175121786Y-130489707D01*
X175010292Y-130378213D01*
X175010288Y-130378210D01*
X174879185Y-130290609D01*
X174879172Y-130290602D01*
X174733501Y-130230264D01*
X174733489Y-130230261D01*
X174578845Y-130199500D01*
X174578842Y-130199500D01*
X174421158Y-130199500D01*
X174421155Y-130199500D01*
X174266510Y-130230261D01*
X174266498Y-130230264D01*
X174120827Y-130290602D01*
X174120814Y-130290609D01*
X173989125Y-130378602D01*
X173922447Y-130399480D01*
X173920234Y-130399500D01*
X158579766Y-130399500D01*
X158512727Y-130379815D01*
X158510875Y-130378602D01*
X158379185Y-130290609D01*
X158379172Y-130290602D01*
X158233501Y-130230264D01*
X158233489Y-130230261D01*
X158078845Y-130199500D01*
X158078842Y-130199500D01*
X157921158Y-130199500D01*
X157921155Y-130199500D01*
X157766510Y-130230261D01*
X157766498Y-130230264D01*
X157620827Y-130290602D01*
X157620814Y-130290609D01*
X157489711Y-130378210D01*
X157489707Y-130378213D01*
X157378213Y-130489707D01*
X157378210Y-130489711D01*
X157290609Y-130620814D01*
X157290602Y-130620827D01*
X157230264Y-130766498D01*
X157230261Y-130766510D01*
X157199500Y-130921153D01*
X154053232Y-130921153D01*
X154010292Y-130878213D01*
X154010288Y-130878210D01*
X153879185Y-130790609D01*
X153879172Y-130790602D01*
X153733501Y-130730264D01*
X153733489Y-130730261D01*
X153578845Y-130699500D01*
X153578842Y-130699500D01*
X153421158Y-130699500D01*
X153421155Y-130699500D01*
X153266510Y-130730261D01*
X153266498Y-130730264D01*
X153120827Y-130790602D01*
X153120814Y-130790609D01*
X152989711Y-130878210D01*
X152989707Y-130878213D01*
X152878213Y-130989707D01*
X152878210Y-130989711D01*
X152790609Y-131120814D01*
X152790602Y-131120827D01*
X152730264Y-131266498D01*
X152730261Y-131266510D01*
X152699500Y-131421153D01*
X131778831Y-131421153D01*
X131706463Y-121579054D01*
X151399498Y-121579054D01*
X151440423Y-121731785D01*
X151469358Y-121781900D01*
X151469359Y-121781904D01*
X151469360Y-121781904D01*
X151519479Y-121868714D01*
X151519481Y-121868717D01*
X151638349Y-121987585D01*
X151638355Y-121987590D01*
X152665425Y-123014660D01*
X152698910Y-123075983D01*
X152699361Y-123078149D01*
X152730261Y-123233491D01*
X152730264Y-123233501D01*
X152790602Y-123379172D01*
X152790609Y-123379185D01*
X152878210Y-123510288D01*
X152878213Y-123510292D01*
X152989707Y-123621786D01*
X152989711Y-123621789D01*
X153120814Y-123709390D01*
X153120827Y-123709397D01*
X153266498Y-123769735D01*
X153266503Y-123769737D01*
X153421153Y-123800499D01*
X153421156Y-123800500D01*
X153421158Y-123800500D01*
X153578844Y-123800500D01*
X153578845Y-123800499D01*
X153733497Y-123769737D01*
X153879179Y-123709394D01*
X154010289Y-123621789D01*
X154121789Y-123510289D01*
X154209394Y-123379179D01*
X154269737Y-123233497D01*
X154300500Y-123078842D01*
X154300500Y-122921158D01*
X154300500Y-122921155D01*
X154300499Y-122921153D01*
X154269738Y-122766510D01*
X154269737Y-122766503D01*
X154269735Y-122766498D01*
X154209397Y-122620827D01*
X154209390Y-122620814D01*
X154121789Y-122489711D01*
X154121786Y-122489707D01*
X154010292Y-122378213D01*
X154010288Y-122378210D01*
X153879185Y-122290609D01*
X153879172Y-122290602D01*
X153733501Y-122230264D01*
X153733491Y-122230261D01*
X153578149Y-122199361D01*
X153516238Y-122166976D01*
X153514660Y-122165425D01*
X152636819Y-121287584D01*
X152603334Y-121226261D01*
X152600500Y-121199903D01*
X152600500Y-119421153D01*
X158199500Y-119421153D01*
X158199500Y-119578846D01*
X158230261Y-119733489D01*
X158230264Y-119733501D01*
X158290602Y-119879172D01*
X158290609Y-119879185D01*
X158378210Y-120010288D01*
X158378213Y-120010292D01*
X158489707Y-120121786D01*
X158489711Y-120121789D01*
X158620814Y-120209390D01*
X158620827Y-120209397D01*
X158766498Y-120269735D01*
X158766503Y-120269737D01*
X158921153Y-120300499D01*
X158921156Y-120300500D01*
X158921158Y-120300500D01*
X159078844Y-120300500D01*
X159078845Y-120300499D01*
X159233497Y-120269737D01*
X159379179Y-120209394D01*
X159510289Y-120121789D01*
X159621789Y-120010289D01*
X159709394Y-119879179D01*
X159769737Y-119733497D01*
X159800500Y-119578842D01*
X159800500Y-119421158D01*
X159800500Y-119421155D01*
X159800499Y-119421153D01*
X159769738Y-119266510D01*
X159769737Y-119266503D01*
X159769735Y-119266498D01*
X159709397Y-119120827D01*
X159709390Y-119120814D01*
X159621398Y-118989125D01*
X159600520Y-118922447D01*
X159600500Y-118920234D01*
X159600500Y-117897955D01*
X159620185Y-117830916D01*
X159672989Y-117785161D01*
X159700303Y-117776339D01*
X159733497Y-117769737D01*
X159879179Y-117709394D01*
X160010289Y-117621789D01*
X160121789Y-117510289D01*
X160209394Y-117379179D01*
X160269737Y-117233497D01*
X160300500Y-117078842D01*
X160300500Y-116921158D01*
X160300500Y-116921155D01*
X160300499Y-116921153D01*
X160269738Y-116766510D01*
X160269738Y-116766508D01*
X160269737Y-116766503D01*
X160269735Y-116766498D01*
X160209397Y-116620827D01*
X160209390Y-116620814D01*
X160121789Y-116489711D01*
X160121786Y-116489707D01*
X160010292Y-116378213D01*
X160010288Y-116378210D01*
X159879185Y-116290609D01*
X159879172Y-116290602D01*
X159733501Y-116230264D01*
X159733489Y-116230261D01*
X159578845Y-116199500D01*
X159578842Y-116199500D01*
X159421158Y-116199500D01*
X159421155Y-116199500D01*
X159266510Y-116230261D01*
X159266498Y-116230264D01*
X159120827Y-116290602D01*
X159120814Y-116290609D01*
X158989711Y-116378210D01*
X158989707Y-116378213D01*
X158878213Y-116489707D01*
X158878210Y-116489711D01*
X158790609Y-116620814D01*
X158790602Y-116620827D01*
X158730264Y-116766498D01*
X158730261Y-116766508D01*
X158699362Y-116921847D01*
X158690597Y-116938602D01*
X158686578Y-116957081D01*
X158667834Y-116982118D01*
X158666977Y-116983758D01*
X158665427Y-116985335D01*
X158624224Y-117026538D01*
X158624212Y-117026552D01*
X158519478Y-117131286D01*
X158469361Y-117218094D01*
X158469359Y-117218096D01*
X158440425Y-117268209D01*
X158440424Y-117268210D01*
X158440423Y-117268215D01*
X158399499Y-117420943D01*
X158399499Y-117420945D01*
X158399499Y-117589046D01*
X158399500Y-117589059D01*
X158399500Y-118920234D01*
X158379815Y-118987273D01*
X158378602Y-118989125D01*
X158290609Y-119120814D01*
X158290602Y-119120827D01*
X158230264Y-119266498D01*
X158230261Y-119266510D01*
X158199500Y-119421153D01*
X152600500Y-119421153D01*
X152600500Y-115189903D01*
X152620185Y-115122864D01*
X152672989Y-115077109D01*
X152675088Y-115076173D01*
X152683519Y-115072509D01*
X152731785Y-115059577D01*
X152781904Y-115030639D01*
X152868716Y-114980520D01*
X152980520Y-114868716D01*
X152980521Y-114868714D01*
X153014662Y-114834572D01*
X153075983Y-114801089D01*
X153078150Y-114800638D01*
X153136085Y-114789113D01*
X153233497Y-114769737D01*
X153379179Y-114709394D01*
X153510289Y-114621789D01*
X153621789Y-114510289D01*
X153709394Y-114379179D01*
X153769737Y-114233497D01*
X153800500Y-114078842D01*
X153800500Y-113921158D01*
X153800500Y-113921155D01*
X153800499Y-113921153D01*
X153776419Y-113800097D01*
X153769737Y-113766503D01*
X153739432Y-113693339D01*
X153709397Y-113620827D01*
X153709390Y-113620814D01*
X153621789Y-113489711D01*
X153621786Y-113489707D01*
X153510292Y-113378213D01*
X153510288Y-113378210D01*
X153379185Y-113290609D01*
X153379172Y-113290602D01*
X153233501Y-113230264D01*
X153233489Y-113230261D01*
X153078845Y-113199500D01*
X153078842Y-113199500D01*
X152921158Y-113199500D01*
X152921155Y-113199500D01*
X152766510Y-113230261D01*
X152766498Y-113230264D01*
X152620827Y-113290602D01*
X152620814Y-113290609D01*
X152489711Y-113378210D01*
X152489707Y-113378213D01*
X152378213Y-113489707D01*
X152378210Y-113489711D01*
X152290609Y-113620814D01*
X152290602Y-113620827D01*
X152230264Y-113766498D01*
X152230261Y-113766510D01*
X152223661Y-113799691D01*
X152191276Y-113861602D01*
X152130561Y-113896176D01*
X152102044Y-113899500D01*
X151920943Y-113899500D01*
X151768216Y-113940423D01*
X151768209Y-113940426D01*
X151631290Y-114019475D01*
X151631282Y-114019481D01*
X151519481Y-114131282D01*
X151519475Y-114131290D01*
X151440426Y-114268209D01*
X151440423Y-114268216D01*
X151399500Y-114420943D01*
X151399500Y-121413330D01*
X151399499Y-121413348D01*
X151399499Y-121579054D01*
X151399498Y-121579054D01*
X131706463Y-121579054D01*
X131642014Y-112813993D01*
X136500500Y-112813993D01*
X136500500Y-112971686D01*
X136531261Y-113126329D01*
X136531264Y-113126341D01*
X136591602Y-113272012D01*
X136591609Y-113272025D01*
X136679210Y-113403128D01*
X136679213Y-113403132D01*
X136790707Y-113514626D01*
X136790711Y-113514629D01*
X136921814Y-113602230D01*
X136921827Y-113602237D01*
X137067498Y-113662575D01*
X137067503Y-113662577D01*
X137222153Y-113693339D01*
X137222156Y-113693340D01*
X137222158Y-113693340D01*
X137379844Y-113693340D01*
X137379845Y-113693339D01*
X137534497Y-113662577D01*
X137680179Y-113602234D01*
X137811289Y-113514629D01*
X137922789Y-113403129D01*
X138010394Y-113272019D01*
X138011971Y-113268213D01*
X138040432Y-113199500D01*
X138070737Y-113126337D01*
X138101500Y-112971682D01*
X138101500Y-112813998D01*
X138101500Y-112813995D01*
X138101499Y-112813993D01*
X138070738Y-112659350D01*
X138070737Y-112659343D01*
X138070735Y-112659338D01*
X138010397Y-112513667D01*
X138010390Y-112513654D01*
X137922398Y-112381965D01*
X137901520Y-112315287D01*
X137901500Y-112313074D01*
X137901500Y-111692937D01*
X137921185Y-111625898D01*
X137937819Y-111605256D01*
X138309586Y-111233489D01*
X138621921Y-110921153D01*
X153699500Y-110921153D01*
X153699500Y-111078846D01*
X153730261Y-111233489D01*
X153730264Y-111233501D01*
X153790602Y-111379172D01*
X153790609Y-111379185D01*
X153878210Y-111510288D01*
X153878213Y-111510292D01*
X153989707Y-111621786D01*
X153989711Y-111621789D01*
X154120814Y-111709390D01*
X154120827Y-111709397D01*
X154266498Y-111769735D01*
X154266503Y-111769737D01*
X154331147Y-111782595D01*
X154421849Y-111800638D01*
X154483760Y-111833023D01*
X154485339Y-111834574D01*
X156363181Y-113712416D01*
X156377884Y-113739343D01*
X156394477Y-113765162D01*
X156395368Y-113771362D01*
X156396666Y-113773739D01*
X156399500Y-113800097D01*
X156399500Y-113920234D01*
X156379815Y-113987273D01*
X156378602Y-113989125D01*
X156290609Y-114120814D01*
X156290602Y-114120827D01*
X156230264Y-114266498D01*
X156230261Y-114266510D01*
X156199500Y-114421153D01*
X156199500Y-114578846D01*
X156230261Y-114733489D01*
X156230264Y-114733501D01*
X156290602Y-114879172D01*
X156290609Y-114879185D01*
X156378210Y-115010288D01*
X156378213Y-115010292D01*
X156489707Y-115121786D01*
X156489711Y-115121789D01*
X156620814Y-115209390D01*
X156620827Y-115209397D01*
X156766498Y-115269735D01*
X156766503Y-115269737D01*
X156921153Y-115300499D01*
X156921156Y-115300500D01*
X156921158Y-115300500D01*
X157078844Y-115300500D01*
X157078845Y-115300499D01*
X157233497Y-115269737D01*
X157379179Y-115209394D01*
X157510289Y-115121789D01*
X157621789Y-115010289D01*
X157709394Y-114879179D01*
X157769737Y-114733497D01*
X157800500Y-114578842D01*
X157800500Y-114421158D01*
X157800500Y-114421155D01*
X157800499Y-114421153D01*
X157792148Y-114379172D01*
X157769737Y-114266503D01*
X157756062Y-114233489D01*
X157709397Y-114120827D01*
X157709390Y-114120814D01*
X157621398Y-113989125D01*
X157600520Y-113922447D01*
X157600500Y-113920234D01*
X157600500Y-113589059D01*
X157600501Y-113589046D01*
X157600501Y-113420945D01*
X157600501Y-113420943D01*
X157559577Y-113268215D01*
X157519904Y-113199500D01*
X157480520Y-113131284D01*
X157368716Y-113019480D01*
X157364385Y-113015149D01*
X157364374Y-113015139D01*
X155334574Y-110985339D01*
X155301089Y-110924016D01*
X155300638Y-110921849D01*
X155269738Y-110766510D01*
X155269737Y-110766503D01*
X155239676Y-110693929D01*
X155209397Y-110620827D01*
X155209390Y-110620814D01*
X155121789Y-110489711D01*
X155121786Y-110489707D01*
X155010292Y-110378213D01*
X155010288Y-110378210D01*
X154879185Y-110290609D01*
X154879172Y-110290602D01*
X154733501Y-110230264D01*
X154733489Y-110230261D01*
X154578845Y-110199500D01*
X154578842Y-110199500D01*
X154421158Y-110199500D01*
X154421155Y-110199500D01*
X154266510Y-110230261D01*
X154266498Y-110230264D01*
X154120827Y-110290602D01*
X154120814Y-110290609D01*
X153989711Y-110378210D01*
X153989707Y-110378213D01*
X153878213Y-110489707D01*
X153878210Y-110489711D01*
X153790609Y-110620814D01*
X153790602Y-110620827D01*
X153730264Y-110766498D01*
X153730261Y-110766510D01*
X153699500Y-110921153D01*
X138621921Y-110921153D01*
X138815662Y-110727412D01*
X138876983Y-110693929D01*
X138879150Y-110693478D01*
X138937085Y-110681953D01*
X139034497Y-110662577D01*
X139180179Y-110602234D01*
X139311289Y-110514629D01*
X139422789Y-110403129D01*
X139510394Y-110272019D01*
X139570737Y-110126337D01*
X139601500Y-109971682D01*
X139601500Y-109813998D01*
X139601500Y-109813995D01*
X139601499Y-109813993D01*
X139570738Y-109659350D01*
X139570738Y-109659348D01*
X139570737Y-109659343D01*
X139570735Y-109659338D01*
X139510397Y-109513667D01*
X139510390Y-109513654D01*
X139422789Y-109382551D01*
X139422786Y-109382547D01*
X139311292Y-109271053D01*
X139311288Y-109271050D01*
X139180185Y-109183449D01*
X139180172Y-109183442D01*
X139034501Y-109123104D01*
X139034489Y-109123101D01*
X138879845Y-109092340D01*
X138879842Y-109092340D01*
X138722158Y-109092340D01*
X138722155Y-109092340D01*
X138567510Y-109123101D01*
X138567498Y-109123104D01*
X138421827Y-109183442D01*
X138421814Y-109183449D01*
X138290711Y-109271050D01*
X138290707Y-109271053D01*
X138179213Y-109382547D01*
X138179210Y-109382551D01*
X138091609Y-109513654D01*
X138091602Y-109513667D01*
X138031264Y-109659338D01*
X138031261Y-109659348D01*
X138000361Y-109814690D01*
X137967976Y-109876601D01*
X137966425Y-109878179D01*
X136820481Y-111024122D01*
X136820479Y-111024124D01*
X136804269Y-111052201D01*
X136797418Y-111064069D01*
X136741423Y-111161055D01*
X136700499Y-111313783D01*
X136700499Y-111313785D01*
X136700499Y-111481886D01*
X136700500Y-111481899D01*
X136700500Y-112313074D01*
X136680815Y-112380113D01*
X136679602Y-112381965D01*
X136591609Y-112513654D01*
X136591602Y-112513667D01*
X136531264Y-112659338D01*
X136531261Y-112659350D01*
X136500500Y-112813993D01*
X131642014Y-112813993D01*
X131582108Y-104666726D01*
X139550500Y-104666726D01*
X139550500Y-106603953D01*
X139550501Y-106603992D01*
X139553295Y-106656583D01*
X139553295Y-106656584D01*
X139558551Y-106683760D01*
X139597755Y-106886466D01*
X139646326Y-107015172D01*
X139680425Y-107105529D01*
X139798929Y-107307471D01*
X139798934Y-107307478D01*
X139949856Y-107486481D01*
X139949858Y-107486483D01*
X140128861Y-107637405D01*
X140128868Y-107637410D01*
X140330810Y-107755914D01*
X140549874Y-107838585D01*
X140779759Y-107883045D01*
X140832378Y-107885840D01*
X140832386Y-107885840D01*
X142769614Y-107885840D01*
X142769622Y-107885840D01*
X142822241Y-107883045D01*
X143052126Y-107838585D01*
X143271190Y-107755914D01*
X143473132Y-107637410D01*
X143652142Y-107486482D01*
X143803070Y-107307472D01*
X143921574Y-107105530D01*
X144004245Y-106886466D01*
X144048705Y-106656581D01*
X144051500Y-106603962D01*
X144051500Y-104666718D01*
X144048705Y-104614099D01*
X144004245Y-104384214D01*
X143921574Y-104165150D01*
X143803070Y-103963208D01*
X143803065Y-103963201D01*
X143652143Y-103784198D01*
X143652141Y-103784196D01*
X143473138Y-103633274D01*
X143473131Y-103633269D01*
X143271189Y-103514765D01*
X143173513Y-103477904D01*
X143052126Y-103432095D01*
X143052121Y-103432094D01*
X143052116Y-103432092D01*
X143049470Y-103431580D01*
X143048451Y-103431053D01*
X143047050Y-103430657D01*
X143047130Y-103430371D01*
X142987392Y-103399517D01*
X142952503Y-103338981D01*
X142955881Y-103269193D01*
X142996452Y-103212310D01*
X143061337Y-103186392D01*
X143073009Y-103185839D01*
X146598872Y-103185839D01*
X146658483Y-103179431D01*
X146793331Y-103129136D01*
X146908546Y-103042886D01*
X146994796Y-102927671D01*
X147045091Y-102792823D01*
X147051500Y-102733213D01*
X147051499Y-99137468D01*
X147045091Y-99077857D01*
X147005431Y-98971524D01*
X146994797Y-98943011D01*
X146994793Y-98943004D01*
X146908547Y-98827795D01*
X146908544Y-98827792D01*
X146793335Y-98741546D01*
X146793328Y-98741542D01*
X146658482Y-98691248D01*
X146658483Y-98691248D01*
X146598883Y-98684841D01*
X146598881Y-98684840D01*
X146598873Y-98684840D01*
X146598864Y-98684840D01*
X143003129Y-98684840D01*
X143003123Y-98684841D01*
X142943516Y-98691248D01*
X142808671Y-98741542D01*
X142808664Y-98741546D01*
X142693455Y-98827792D01*
X142693452Y-98827795D01*
X142607206Y-98943004D01*
X142607202Y-98943011D01*
X142556908Y-99077857D01*
X142551303Y-99130000D01*
X142550501Y-99137463D01*
X142550500Y-99137475D01*
X142550500Y-102733210D01*
X142550501Y-102733216D01*
X142556908Y-102792823D01*
X142607202Y-102927668D01*
X142607206Y-102927675D01*
X142693452Y-103042884D01*
X142693455Y-103042887D01*
X142808664Y-103129133D01*
X142808673Y-103129138D01*
X142855937Y-103146766D01*
X142911871Y-103188636D01*
X142936289Y-103254100D01*
X142921438Y-103322373D01*
X142872033Y-103371779D01*
X142806028Y-103386773D01*
X142769657Y-103384841D01*
X142769628Y-103384840D01*
X142769622Y-103384840D01*
X140832378Y-103384840D01*
X140832370Y-103384840D01*
X140832347Y-103384841D01*
X140779756Y-103387635D01*
X140779755Y-103387635D01*
X140549878Y-103432094D01*
X140549876Y-103432094D01*
X140549874Y-103432095D01*
X140475933Y-103459999D01*
X140330810Y-103514765D01*
X140128868Y-103633269D01*
X140128861Y-103633274D01*
X139949858Y-103784196D01*
X139949856Y-103784198D01*
X139798934Y-103963201D01*
X139798929Y-103963208D01*
X139680425Y-104165150D01*
X139625659Y-104310273D01*
X139597755Y-104384214D01*
X139597754Y-104384216D01*
X139597754Y-104384218D01*
X139553295Y-104614095D01*
X139553295Y-104614096D01*
X139550501Y-104666687D01*
X139550500Y-104666726D01*
X131582108Y-104666726D01*
X131546846Y-99871117D01*
X136800500Y-99871117D01*
X136800500Y-101999548D01*
X136800501Y-101999563D01*
X136810904Y-102131753D01*
X136810905Y-102131760D01*
X136865902Y-102350018D01*
X136865903Y-102350021D01*
X136958991Y-102554962D01*
X136958997Y-102554972D01*
X137087174Y-102739985D01*
X137087178Y-102739990D01*
X137087181Y-102739994D01*
X137246346Y-102899159D01*
X137246350Y-102899162D01*
X137246354Y-102899165D01*
X137385603Y-102995637D01*
X137431374Y-103027347D01*
X137636317Y-103120436D01*
X137636321Y-103120437D01*
X137854579Y-103175434D01*
X137854581Y-103175434D01*
X137854588Y-103175436D01*
X137986783Y-103185840D01*
X139615216Y-103185839D01*
X139747412Y-103175436D01*
X139965683Y-103120436D01*
X140170626Y-103027347D01*
X140355654Y-102899159D01*
X140514819Y-102739994D01*
X140643007Y-102554966D01*
X140736096Y-102350023D01*
X140791096Y-102131752D01*
X140801500Y-101999557D01*
X140801499Y-99871124D01*
X140791096Y-99738928D01*
X140736096Y-99520657D01*
X140643007Y-99315714D01*
X140611297Y-99269943D01*
X140514825Y-99130694D01*
X140514822Y-99130690D01*
X140514819Y-99130686D01*
X140355654Y-98971521D01*
X140355650Y-98971518D01*
X140355645Y-98971514D01*
X140170632Y-98843337D01*
X140170630Y-98843335D01*
X140170626Y-98843333D01*
X140136411Y-98827792D01*
X139965681Y-98750243D01*
X139965678Y-98750242D01*
X139747420Y-98695245D01*
X139747413Y-98695244D01*
X139696638Y-98691248D01*
X139615217Y-98684840D01*
X139615215Y-98684840D01*
X137986791Y-98684840D01*
X137986776Y-98684841D01*
X137854586Y-98695244D01*
X137854579Y-98695245D01*
X137636321Y-98750242D01*
X137636318Y-98750243D01*
X137431377Y-98843331D01*
X137431367Y-98843337D01*
X137246354Y-98971514D01*
X137246342Y-98971524D01*
X137087184Y-99130682D01*
X137087174Y-99130694D01*
X136958997Y-99315707D01*
X136958991Y-99315717D01*
X136865903Y-99520658D01*
X136865902Y-99520661D01*
X136810905Y-99738919D01*
X136810904Y-99738926D01*
X136800500Y-99871117D01*
X131546846Y-99871117D01*
X131521139Y-96374975D01*
X149450500Y-96374975D01*
X149450500Y-98170710D01*
X149450501Y-98170716D01*
X149456908Y-98230323D01*
X149507202Y-98365168D01*
X149507206Y-98365175D01*
X149593452Y-98480384D01*
X149593455Y-98480387D01*
X149708664Y-98566633D01*
X149708671Y-98566637D01*
X149753618Y-98583401D01*
X149843517Y-98616931D01*
X149903127Y-98623340D01*
X149913685Y-98623339D01*
X149980723Y-98643019D01*
X150001372Y-98659658D01*
X150671591Y-99329877D01*
X150608007Y-99346915D01*
X150493993Y-99412741D01*
X150400901Y-99505833D01*
X150335075Y-99619847D01*
X150318037Y-99683431D01*
X149685728Y-99051122D01*
X149685727Y-99051122D01*
X149646380Y-99105279D01*
X149549904Y-99294622D01*
X149484242Y-99496709D01*
X149484242Y-99496712D01*
X149451000Y-99706593D01*
X149451000Y-99919086D01*
X149484242Y-100128967D01*
X149484242Y-100128970D01*
X149549904Y-100331057D01*
X149646375Y-100520390D01*
X149685728Y-100574556D01*
X150318037Y-99942248D01*
X150335075Y-100005833D01*
X150400901Y-100119847D01*
X150493993Y-100212939D01*
X150608007Y-100278765D01*
X150671590Y-100295802D01*
X150039282Y-100928109D01*
X150039282Y-100928110D01*
X150093452Y-100967466D01*
X150093451Y-100967466D01*
X150102495Y-100972074D01*
X150153292Y-101020048D01*
X150170087Y-101087869D01*
X150147550Y-101154004D01*
X150102499Y-101193042D01*
X150093182Y-101197789D01*
X149921213Y-101322730D01*
X149770890Y-101473053D01*
X149645951Y-101645019D01*
X149549444Y-101834425D01*
X149483753Y-102036600D01*
X149450500Y-102246553D01*
X149450500Y-102459126D01*
X149477218Y-102627820D01*
X149483754Y-102669083D01*
X149526222Y-102799786D01*
X149549444Y-102871254D01*
X149645951Y-103060660D01*
X149770890Y-103232626D01*
X149921213Y-103382949D01*
X150093182Y-103507890D01*
X150101946Y-103512356D01*
X150152742Y-103560331D01*
X150169536Y-103628152D01*
X150146998Y-103694287D01*
X150101946Y-103733324D01*
X150093182Y-103737789D01*
X149921213Y-103862730D01*
X149770890Y-104013053D01*
X149645951Y-104185019D01*
X149549444Y-104374425D01*
X149483753Y-104576600D01*
X149450500Y-104786553D01*
X149450500Y-104999126D01*
X149477218Y-105167820D01*
X149483754Y-105209083D01*
X149526222Y-105339786D01*
X149549444Y-105411254D01*
X149645951Y-105600660D01*
X149770890Y-105772626D01*
X149921213Y-105922949D01*
X150093179Y-106047888D01*
X150093181Y-106047889D01*
X150093184Y-106047891D01*
X150282588Y-106144397D01*
X150484757Y-106210086D01*
X150694713Y-106243340D01*
X150694714Y-106243340D01*
X150907286Y-106243340D01*
X150907287Y-106243340D01*
X151117243Y-106210086D01*
X151319412Y-106144397D01*
X151508816Y-106047891D01*
X151616176Y-105969890D01*
X151680786Y-105922949D01*
X151680788Y-105922946D01*
X151680792Y-105922944D01*
X151831104Y-105772632D01*
X151831106Y-105772628D01*
X151831109Y-105772626D01*
X151940086Y-105622629D01*
X151956051Y-105600656D01*
X152052557Y-105411252D01*
X152118246Y-105209083D01*
X152151500Y-104999127D01*
X152151500Y-104786553D01*
X152118246Y-104576597D01*
X152052557Y-104374428D01*
X151956051Y-104185024D01*
X151956049Y-104185021D01*
X151956048Y-104185019D01*
X151831109Y-104013053D01*
X151680786Y-103862730D01*
X151508820Y-103737791D01*
X151508115Y-103737431D01*
X151500054Y-103733325D01*
X151449259Y-103685352D01*
X151432463Y-103617532D01*
X151454999Y-103551396D01*
X151500054Y-103512355D01*
X151508816Y-103507891D01*
X151613141Y-103432095D01*
X151680786Y-103382949D01*
X151680788Y-103382946D01*
X151680792Y-103382944D01*
X151831104Y-103232632D01*
X151831106Y-103232628D01*
X151831109Y-103232626D01*
X151940086Y-103082629D01*
X151956051Y-103060656D01*
X152052557Y-102871252D01*
X152118246Y-102669083D01*
X152151500Y-102459127D01*
X152151500Y-102246553D01*
X152118246Y-102036597D01*
X152052557Y-101834428D01*
X152042002Y-101813713D01*
X161149500Y-101813713D01*
X161149500Y-102026287D01*
X161159534Y-102089644D01*
X161182753Y-102236239D01*
X161248444Y-102438414D01*
X161344951Y-102627820D01*
X161469890Y-102799786D01*
X161620213Y-102950109D01*
X161792182Y-103075050D01*
X161800946Y-103079516D01*
X161851742Y-103127491D01*
X161868536Y-103195312D01*
X161845998Y-103261447D01*
X161800946Y-103300484D01*
X161792182Y-103304949D01*
X161620213Y-103429890D01*
X161469890Y-103580213D01*
X161344951Y-103752179D01*
X161248444Y-103941585D01*
X161182753Y-104143760D01*
X161149500Y-104353713D01*
X161149500Y-104566287D01*
X161157072Y-104614095D01*
X161182753Y-104776239D01*
X161248444Y-104978414D01*
X161344951Y-105167820D01*
X161469890Y-105339786D01*
X161620213Y-105490109D01*
X161792182Y-105615050D01*
X161800946Y-105619516D01*
X161851742Y-105667491D01*
X161868536Y-105735312D01*
X161845998Y-105801447D01*
X161800946Y-105840484D01*
X161792182Y-105844949D01*
X161620213Y-105969890D01*
X161469890Y-106120213D01*
X161344951Y-106292179D01*
X161248444Y-106481585D01*
X161182753Y-106683760D01*
X161149500Y-106893713D01*
X161149500Y-107106286D01*
X161181365Y-107307478D01*
X161182754Y-107316243D01*
X161238068Y-107486482D01*
X161248444Y-107518414D01*
X161344951Y-107707820D01*
X161469890Y-107879786D01*
X161620213Y-108030109D01*
X161792179Y-108155048D01*
X161792181Y-108155049D01*
X161792184Y-108155051D01*
X161981588Y-108251557D01*
X162183757Y-108317246D01*
X162393713Y-108350500D01*
X162393714Y-108350500D01*
X162606286Y-108350500D01*
X162606287Y-108350500D01*
X162816243Y-108317246D01*
X163018412Y-108251557D01*
X163207816Y-108155051D01*
X163229789Y-108139086D01*
X163379786Y-108030109D01*
X163379788Y-108030106D01*
X163379792Y-108030104D01*
X163530104Y-107879792D01*
X163530106Y-107879788D01*
X163530109Y-107879786D01*
X163655048Y-107707820D01*
X163655047Y-107707820D01*
X163655051Y-107707816D01*
X163751557Y-107518412D01*
X163817246Y-107316243D01*
X163850500Y-107106287D01*
X163850500Y-106893713D01*
X163817246Y-106683757D01*
X163751557Y-106481588D01*
X163655051Y-106292184D01*
X163655049Y-106292181D01*
X163655048Y-106292179D01*
X163530109Y-106120213D01*
X163379786Y-105969890D01*
X163207820Y-105844951D01*
X163207115Y-105844591D01*
X163199054Y-105840485D01*
X163148259Y-105792512D01*
X163131463Y-105724692D01*
X163153999Y-105658556D01*
X163199054Y-105619515D01*
X163207816Y-105615051D01*
X163229789Y-105599086D01*
X163379786Y-105490109D01*
X163379788Y-105490106D01*
X163379792Y-105490104D01*
X163530104Y-105339792D01*
X163530106Y-105339788D01*
X163530109Y-105339786D01*
X163655048Y-105167820D01*
X163655047Y-105167820D01*
X163655051Y-105167816D01*
X163751557Y-104978412D01*
X163817246Y-104776243D01*
X163850500Y-104566287D01*
X163850500Y-104353713D01*
X163817246Y-104143757D01*
X163751557Y-103941588D01*
X163655051Y-103752184D01*
X163655049Y-103752181D01*
X163655048Y-103752179D01*
X163530109Y-103580213D01*
X163379786Y-103429890D01*
X163207820Y-103304951D01*
X163207115Y-103304591D01*
X163199054Y-103300485D01*
X163148259Y-103252512D01*
X163131463Y-103184692D01*
X163153999Y-103118556D01*
X163199054Y-103079515D01*
X163207816Y-103075051D01*
X163252088Y-103042886D01*
X163379786Y-102950109D01*
X163379788Y-102950106D01*
X163379792Y-102950104D01*
X163530104Y-102799792D01*
X163530106Y-102799788D01*
X163530109Y-102799786D01*
X163655048Y-102627820D01*
X163655047Y-102627820D01*
X163655051Y-102627816D01*
X163751557Y-102438412D01*
X163817246Y-102236243D01*
X163850500Y-102026287D01*
X163850500Y-101813713D01*
X163817246Y-101603757D01*
X163751557Y-101401588D01*
X163655051Y-101212184D01*
X163655049Y-101212181D01*
X163655048Y-101212179D01*
X163530109Y-101040213D01*
X163416181Y-100926285D01*
X163382696Y-100864962D01*
X163387680Y-100795270D01*
X163429552Y-100739337D01*
X163460529Y-100722422D01*
X163592086Y-100673354D01*
X163592093Y-100673350D01*
X163707187Y-100587190D01*
X163707190Y-100587187D01*
X163793350Y-100472093D01*
X163793354Y-100472086D01*
X163843596Y-100337379D01*
X163843598Y-100337372D01*
X163849999Y-100277844D01*
X163850000Y-100277827D01*
X163850000Y-99630000D01*
X162933012Y-99630000D01*
X162965925Y-99572993D01*
X163000000Y-99445826D01*
X163000000Y-99314174D01*
X162965925Y-99187007D01*
X162933012Y-99130000D01*
X163850000Y-99130000D01*
X163850000Y-98482172D01*
X163849999Y-98482155D01*
X163843598Y-98422627D01*
X163843596Y-98422620D01*
X163793354Y-98287913D01*
X163793350Y-98287906D01*
X163707190Y-98172812D01*
X163707187Y-98172809D01*
X163592093Y-98086649D01*
X163592086Y-98086645D01*
X163457379Y-98036403D01*
X163457372Y-98036401D01*
X163397844Y-98030000D01*
X162750000Y-98030000D01*
X162750000Y-98946988D01*
X162692993Y-98914075D01*
X162565826Y-98880000D01*
X162434174Y-98880000D01*
X162307007Y-98914075D01*
X162250000Y-98946988D01*
X162250000Y-98030000D01*
X161602155Y-98030000D01*
X161542627Y-98036401D01*
X161542620Y-98036403D01*
X161407913Y-98086645D01*
X161407906Y-98086649D01*
X161292812Y-98172809D01*
X161292809Y-98172812D01*
X161206649Y-98287906D01*
X161206645Y-98287913D01*
X161156403Y-98422620D01*
X161156401Y-98422627D01*
X161150000Y-98482155D01*
X161150000Y-99130000D01*
X162066988Y-99130000D01*
X162034075Y-99187007D01*
X162000000Y-99314174D01*
X162000000Y-99445826D01*
X162034075Y-99572993D01*
X162066988Y-99630000D01*
X161150000Y-99630000D01*
X161150000Y-100277844D01*
X161156401Y-100337372D01*
X161156403Y-100337379D01*
X161206645Y-100472086D01*
X161206649Y-100472093D01*
X161292809Y-100587187D01*
X161292812Y-100587190D01*
X161407906Y-100673350D01*
X161407913Y-100673354D01*
X161539470Y-100722422D01*
X161595404Y-100764293D01*
X161619821Y-100829758D01*
X161604969Y-100898031D01*
X161583819Y-100926285D01*
X161469889Y-101040215D01*
X161344951Y-101212179D01*
X161248444Y-101401585D01*
X161182753Y-101603760D01*
X161149500Y-101813713D01*
X152042002Y-101813713D01*
X151956051Y-101645024D01*
X151956049Y-101645021D01*
X151956048Y-101645019D01*
X151831109Y-101473053D01*
X151680786Y-101322730D01*
X151508817Y-101197789D01*
X151499504Y-101193044D01*
X151448707Y-101145070D01*
X151431912Y-101077249D01*
X151454449Y-101011114D01*
X151499507Y-100972072D01*
X151508555Y-100967462D01*
X151562716Y-100928110D01*
X151562717Y-100928110D01*
X150930408Y-100295802D01*
X150993993Y-100278765D01*
X151108007Y-100212939D01*
X151201099Y-100119847D01*
X151266925Y-100005833D01*
X151283962Y-99942249D01*
X151916270Y-100574557D01*
X151916270Y-100574556D01*
X151955622Y-100520394D01*
X152052095Y-100331057D01*
X152117757Y-100128970D01*
X152117757Y-100128967D01*
X152151000Y-99919086D01*
X152151000Y-99706593D01*
X152117757Y-99496712D01*
X152117757Y-99496709D01*
X152052095Y-99294622D01*
X151955624Y-99105289D01*
X151916270Y-99051122D01*
X151916269Y-99051122D01*
X151283962Y-99683430D01*
X151266925Y-99619847D01*
X151201099Y-99505833D01*
X151108007Y-99412741D01*
X150993993Y-99346915D01*
X150930409Y-99329877D01*
X151600627Y-98659658D01*
X151661950Y-98626173D01*
X151688307Y-98623339D01*
X151698872Y-98623339D01*
X151758483Y-98616931D01*
X151893331Y-98566636D01*
X152008546Y-98480386D01*
X152033137Y-98447536D01*
X152065325Y-98404540D01*
X152094793Y-98365175D01*
X152094792Y-98365175D01*
X152094796Y-98365171D01*
X152145091Y-98230323D01*
X152151500Y-98170713D01*
X152151499Y-96374968D01*
X152145091Y-96315357D01*
X152094796Y-96180509D01*
X152094795Y-96180508D01*
X152094793Y-96180504D01*
X152008547Y-96065295D01*
X152008544Y-96065292D01*
X151893335Y-95979046D01*
X151893328Y-95979042D01*
X151758482Y-95928748D01*
X151758483Y-95928748D01*
X151698883Y-95922341D01*
X151698881Y-95922340D01*
X151698873Y-95922340D01*
X151698864Y-95922340D01*
X149903129Y-95922340D01*
X149903123Y-95922341D01*
X149843516Y-95928748D01*
X149708671Y-95979042D01*
X149708664Y-95979046D01*
X149593455Y-96065292D01*
X149593452Y-96065295D01*
X149507206Y-96180504D01*
X149507202Y-96180511D01*
X149456908Y-96315357D01*
X149450501Y-96374956D01*
X149450501Y-96374963D01*
X149450500Y-96374975D01*
X131521139Y-96374975D01*
X131500918Y-93624910D01*
X131520109Y-93557729D01*
X131572576Y-93511587D01*
X131624915Y-93500000D01*
X186375500Y-93500000D01*
X186442539Y-93519685D01*
G37*
%TD.AperFunction*%
%TD*%
M02*
