M48
METRIC
T1C0.200
T2C0.300
T3C1.000
T4C1.570
T5C3.200
%
G90
G05
T1
X170.0Y-122.975
X170.0Y-124.5
X170.762Y-122.212
X170.762Y-123.737
X170.762Y-125.262
X171.525Y-122.975
X171.525Y-124.5
X172.287Y-122.212
X172.287Y-123.737
X172.287Y-125.262
X173.05Y-122.975
X173.05Y-124.5
T2
X137.301Y-112.893
X137.5Y-115.5
X138.25Y-144.02
X138.25Y-151.98
X138.801Y-109.893
X141.451Y-110.193
X148.055Y-120.35
X148.055Y-129.65
X149.325Y-120.35
X149.325Y-129.65
X150.0Y-151.0
X150.335Y-154.325
X150.595Y-120.35
X150.595Y-129.65
X151.801Y-113.393
X151.865Y-129.65
X152.0Y-148.5
X153.0Y-114.0
X153.135Y-129.65
X153.5Y-123.0
X153.5Y-131.5
X153.801Y-109.893
X154.101Y-156.601
X154.5Y-111.0
X156.5Y-117.0
X157.0Y-114.5
X158.0Y-131.0
X158.47Y-148.175
X159.0Y-119.5
X159.0Y-130.0
X159.5Y-117.0
X159.5Y-133.5
X160.5Y-156.0
X161.105Y-118.707
X162.0Y-150.0
X163.5Y-150.0
X163.75Y-145.825
X164.5Y-143.0
X165.5Y-99.5
X167.0Y-104.5
X167.101Y-142.0
X167.435Y-135.935
X170.0Y-136.0
X170.5Y-98.0
X171.0Y-142.5
X171.505Y-149.5
X172.5Y-135.0
X174.005Y-145.35
X174.005Y-153.65
X174.5Y-131.0
X178.865Y-115.667
X178.865Y-133.167
X183.445Y-93.945
T3
X150.801Y-97.273
X150.801Y-99.813
X150.801Y-102.353
X150.801Y-104.893
X162.5Y-99.38
X162.5Y-101.92
X162.5Y-104.46
X162.5Y-107.0
T4
X110.545Y-82.2
X183.445Y-82.2
T5
X118.99Y-82.2
X174.6Y-82.2
T3
G00X138.801Y-99.935
M15
G01X138.801Y-101.935
M16
G05
G00X140.801Y-105.635
M15
G01X142.801Y-105.635
M16
G05
G00X144.801Y-99.935
M15
G01X144.801Y-101.935
M16
G05
M30
