%TF.GenerationSoftware,KiCad,Pcbnew,9.0.6*%
%TF.CreationDate,2026-01-28T16:00:35+00:00*%
%TF.ProjectId,RoomHealthBlackBox,526f6f6d-4865-4616-9c74-68426c61636b,rev?*%
%TF.SameCoordinates,Original*%
%TF.FileFunction,Paste,Top*%
%TF.FilePolarity,Positive*%
%FSLAX46Y46*%
G04 Gerber Fmt 4.6, Leading zero omitted, Abs format (unit mm)*
G04 Created by KiCad (PCBNEW 9.0.6) date 2026-01-28 16:00:35*
%MOMM*%
%LPD*%
G01*
G04 APERTURE LIST*
G04 Aperture macros list*
%AMRoundRect*
0 Rectangle with rounded corners*
0 $1 Rounding radius*
0 $2 $3 $4 $5 $6 $7 $8 $9 X,Y pos of 4 corners*
0 Add a 4 corners polygon primitive as box body*
4,1,4,$2,$3,$4,$5,$6,$7,$8,$9,$2,$3,0*
0 Add four circle primitives for the rounded corners*
1,1,$1+$1,$2,$3*
1,1,$1+$1,$4,$5*
1,1,$1+$1,$6,$7*
1,1,$1+$1,$8,$9*
0 Add four rect primitives between the rounded corners*
20,1,$1+$1,$2,$3,$4,$5,0*
20,1,$1+$1,$4,$5,$6,$7,0*
20,1,$1+$1,$6,$7,$8,$9,0*
20,1,$1+$1,$8,$9,$2,$3,0*%
%AMFreePoly0*
4,1,6,0.450000,-0.800000,-0.450000,-0.800000,-0.450000,0.530000,-0.180000,0.800000,0.450000,0.800000,0.450000,-0.800000,0.450000,-0.800000,$1*%
G04 Aperture macros list end*
%ADD10RoundRect,0.079500X0.079500X0.100500X-0.079500X0.100500X-0.079500X-0.100500X0.079500X-0.100500X0*%
%ADD11RoundRect,0.079500X0.100500X-0.079500X0.100500X0.079500X-0.100500X0.079500X-0.100500X-0.079500X0*%
%ADD12RoundRect,0.079500X-0.079500X-0.100500X0.079500X-0.100500X0.079500X0.100500X-0.079500X0.100500X0*%
%ADD13RoundRect,0.079500X-0.100500X0.079500X-0.100500X-0.079500X0.100500X-0.079500X0.100500X0.079500X0*%
%ADD14R,0.850000X1.100000*%
%ADD15R,0.750000X1.100000*%
%ADD16R,1.200000X1.000000*%
%ADD17R,1.550000X1.350000*%
%ADD18R,1.900000X1.350000*%
%ADD19R,1.170000X1.800000*%
%ADD20RoundRect,0.375000X-0.625000X-0.375000X0.625000X-0.375000X0.625000X0.375000X-0.625000X0.375000X0*%
%ADD21RoundRect,0.500000X-0.500000X-1.400000X0.500000X-1.400000X0.500000X1.400000X-0.500000X1.400000X0*%
%ADD22RoundRect,0.250001X0.714999X0.714999X-0.714999X0.714999X-0.714999X-0.714999X0.714999X-0.714999X0*%
%ADD23RoundRect,0.212500X0.737500X0.212500X-0.737500X0.212500X-0.737500X-0.212500X0.737500X-0.212500X0*%
%ADD24RoundRect,0.212500X0.212500X0.737500X-0.212500X0.737500X-0.212500X-0.737500X0.212500X-0.737500X0*%
%ADD25RoundRect,0.250000X0.400000X-0.525000X0.400000X0.525000X-0.400000X0.525000X-0.400000X-0.525000X0*%
%ADD26R,0.900000X1.500000*%
%ADD27R,1.500000X0.900000*%
%ADD28R,1.050000X1.050000*%
%ADD29RoundRect,0.150000X0.150000X-0.512500X0.150000X0.512500X-0.150000X0.512500X-0.150000X-0.512500X0*%
%ADD30RoundRect,0.150000X-0.150000X0.875000X-0.150000X-0.875000X0.150000X-0.875000X0.150000X0.875000X0*%
%ADD31RoundRect,0.075000X0.075000X-0.250000X0.075000X0.250000X-0.075000X0.250000X-0.075000X-0.250000X0*%
%ADD32FreePoly0,270.000000*%
%ADD33R,0.250000X0.550000*%
G04 APERTURE END LIST*
D10*
%TO.C,D_ENV1*%
X169500000Y-96460000D03*
X168810000Y-96460000D03*
%TD*%
D11*
%TO.C,R2*%
X166500000Y-143665000D03*
X166500000Y-142975000D03*
%TD*%
D12*
%TO.C,R_ENV1*%
X171500000Y-98460000D03*
X172190000Y-98460000D03*
%TD*%
D10*
%TO.C,R_LED_R1*%
X154845000Y-134000000D03*
X154155000Y-134000000D03*
%TD*%
D13*
%TO.C,R4*%
X166500000Y-103115000D03*
X166500000Y-103805000D03*
%TD*%
D12*
%TO.C,R_V1*%
X150711000Y-109892840D03*
X151401000Y-109892840D03*
%TD*%
D14*
%TO.C,J2*%
X155835000Y-154325000D03*
X154735000Y-154325000D03*
X153635000Y-154325000D03*
X152535000Y-154325000D03*
X151435000Y-154325000D03*
X150335000Y-154325000D03*
X149235000Y-154325000D03*
D15*
X148185000Y-154325000D03*
D16*
X158470000Y-148175000D03*
X158470000Y-144475000D03*
D17*
X158295000Y-154200000D03*
D18*
X154970000Y-143500000D03*
X149000000Y-143500000D03*
D19*
X146975000Y-153975000D03*
%TD*%
D13*
%TO.C,R7*%
X170000000Y-99115000D03*
X170000000Y-99805000D03*
%TD*%
%TO.C,R_ADC1*%
X172000000Y-99270000D03*
X172000000Y-99960000D03*
%TD*%
D11*
%TO.C,R1*%
X167500000Y-143640000D03*
X167500000Y-142950000D03*
%TD*%
%TO.C,C_SD1*%
X160800001Y-151500000D03*
X160800001Y-150810000D03*
%TD*%
D10*
%TO.C,D1*%
X139146000Y-112892840D03*
X138456000Y-112892840D03*
%TD*%
D11*
%TO.C,R5*%
X166500000Y-102305000D03*
X166500000Y-101615000D03*
%TD*%
D12*
%TO.C,C_ENV1*%
X171500000Y-97460000D03*
X172190000Y-97460000D03*
%TD*%
D10*
%TO.C,D2*%
X139146000Y-113892840D03*
X138456000Y-113892840D03*
%TD*%
%TO.C,R_LED_G1*%
X154870000Y-132000000D03*
X154180000Y-132000000D03*
%TD*%
D12*
%TO.C,C_IN1*%
X138776000Y-115392840D03*
X139466000Y-115392840D03*
%TD*%
D20*
%TO.C,U3*%
X141451000Y-110200000D03*
X141451000Y-112500000D03*
D21*
X147751000Y-112500000D03*
D20*
X141451000Y-114800000D03*
%TD*%
D11*
%TO.C,C_REF1*%
X167500000Y-103650000D03*
X167500000Y-102960000D03*
%TD*%
D12*
%TO.C,C_CO2*%
X172960000Y-155300000D03*
X173650000Y-155300000D03*
%TD*%
D11*
%TO.C,R3*%
X165500000Y-104805000D03*
X165500000Y-104115000D03*
%TD*%
D13*
%TO.C,R_RTCINT1*%
X154500000Y-117655000D03*
X154500000Y-118345000D03*
%TD*%
D22*
%TO.C,U4*%
X172705000Y-150700000D03*
X172705000Y-148300000D03*
X170305000Y-150700000D03*
X170305000Y-148300000D03*
D23*
X175655000Y-152000000D03*
X175655000Y-150750000D03*
X175655000Y-149500000D03*
X175655000Y-148250000D03*
X175655000Y-147000000D03*
D24*
X174005000Y-145350000D03*
X172755000Y-145350000D03*
X171505000Y-145350000D03*
X170255000Y-145350000D03*
X169005000Y-145350000D03*
D23*
X167355000Y-147000000D03*
X167355000Y-148250000D03*
X167355000Y-149500000D03*
X167355000Y-150750000D03*
X167355000Y-152000000D03*
D24*
X169005000Y-153650000D03*
X170255000Y-153650000D03*
X171505000Y-153650000D03*
X172755000Y-153650000D03*
X174005000Y-153650000D03*
%TD*%
D10*
%TO.C,C_IN2*%
X165525000Y-101460000D03*
X164835000Y-101460000D03*
%TD*%
D25*
%TO.C,SW_CFG1*%
X138250000Y-151980000D03*
X138250000Y-144020000D03*
X142750000Y-151980000D03*
X142750000Y-144020000D03*
%TD*%
D10*
%TO.C,C_OUT1*%
X150646000Y-113392840D03*
X149956000Y-113392840D03*
%TD*%
D12*
%TO.C,R_V2*%
X152276000Y-109892840D03*
X152966000Y-109892840D03*
%TD*%
D10*
%TO.C,D_R1*%
X156345000Y-134000000D03*
X155655000Y-134000000D03*
%TD*%
%TO.C,R_EN1*%
X177525000Y-114000000D03*
X176835000Y-114000000D03*
%TD*%
D26*
%TO.C,U1*%
X178865000Y-115667500D03*
X177595000Y-115667500D03*
X176325000Y-115667500D03*
X175055000Y-115667500D03*
X173785000Y-115667500D03*
X172515000Y-115667500D03*
X171245000Y-115667500D03*
X169975000Y-115667500D03*
X168705000Y-115667500D03*
X167435000Y-115667500D03*
X166165000Y-115667500D03*
X164895000Y-115667500D03*
X163625000Y-115667500D03*
X162355000Y-115667500D03*
D27*
X161105000Y-118707500D03*
X161105000Y-119977500D03*
X161105000Y-121247500D03*
X161105000Y-122517500D03*
X161105000Y-123787500D03*
X161105000Y-125057500D03*
X161105000Y-126327500D03*
X161105000Y-127597500D03*
X161105000Y-128867500D03*
X161105000Y-130137500D03*
D26*
X162355000Y-133167500D03*
X163625000Y-133167500D03*
X164895000Y-133167500D03*
X166165000Y-133167500D03*
X167435000Y-133167500D03*
X168705000Y-133167500D03*
X169975000Y-133167500D03*
X171245000Y-133167500D03*
X172515000Y-133167500D03*
X173785000Y-133167500D03*
X175055000Y-133167500D03*
X176325000Y-133167500D03*
X177595000Y-133167500D03*
X178865000Y-133167500D03*
D28*
X173050000Y-122212500D03*
X171525000Y-122212500D03*
X170000000Y-122212500D03*
X173050000Y-123737500D03*
X171525000Y-123737500D03*
X170000000Y-123737500D03*
X173050000Y-125262500D03*
X171525000Y-125262500D03*
X170000000Y-125262500D03*
%TD*%
D10*
%TO.C,D_G1*%
X156345000Y-132000000D03*
X155655000Y-132000000D03*
%TD*%
D13*
%TO.C,C_RTC1*%
X156000000Y-117655000D03*
X156000000Y-118345000D03*
%TD*%
D12*
%TO.C,C_LUX1*%
X160655000Y-144500000D03*
X161345000Y-144500000D03*
%TD*%
D29*
%TO.C,U_MIC1*%
X166912500Y-100235000D03*
X167862500Y-100235000D03*
X168812500Y-100235000D03*
X168812500Y-97960000D03*
X166912500Y-97960000D03*
%TD*%
D10*
%TO.C,R_CFG1*%
X143155000Y-142040000D03*
X142465000Y-142040000D03*
%TD*%
D30*
%TO.C,U_CLK1*%
X156945000Y-120350000D03*
X155675000Y-120350000D03*
X154405000Y-120350000D03*
X153135000Y-120350000D03*
X151865000Y-120350000D03*
X150595000Y-120350000D03*
X149325000Y-120350000D03*
X148055000Y-120350000D03*
X148055000Y-129650000D03*
X149325000Y-129650000D03*
X150595000Y-129650000D03*
X151865000Y-129650000D03*
X153135000Y-129650000D03*
X154405000Y-129650000D03*
X155675000Y-129650000D03*
X156945000Y-129650000D03*
%TD*%
D31*
%TO.C,U_LUX1*%
X160505000Y-143400000D03*
X161155000Y-143400000D03*
X161805000Y-143400000D03*
X161805000Y-141600000D03*
X161155000Y-141600000D03*
X160505000Y-141600000D03*
%TD*%
D32*
%TO.C,U2*%
X163750000Y-145825000D03*
D33*
X164500000Y-144650000D03*
X164000000Y-144650000D03*
X163500000Y-144650000D03*
X163000000Y-144650000D03*
X163000000Y-147000000D03*
X163500000Y-147000000D03*
X164000000Y-147000000D03*
X164500000Y-147000000D03*
%TD*%
D11*
%TO.C,C_SD2*%
X160800001Y-149665000D03*
X160800001Y-148975000D03*
%TD*%
D12*
%TO.C,R6*%
X167655000Y-101960000D03*
X168345000Y-101960000D03*
%TD*%
M02*
