%TF.GenerationSoftware,KiCad,Pcbnew,9.0.6*%
%TF.CreationDate,2026-01-28T16:00:35+00:00*%
%TF.ProjectId,RoomHealthBlackBox,526f6f6d-4865-4616-9c74-68426c61636b,rev?*%
%TF.SameCoordinates,Original*%
%TF.FileFunction,Legend,Top*%
%TF.FilePolarity,Positive*%
%FSLAX46Y46*%
G04 Gerber Fmt 4.6, Leading zero omitted, Abs format (unit mm)*
G04 Created by KiCad (PCBNEW 9.0.6) date 2026-01-28 16:00:35*
%MOMM*%
%LPD*%
G01*
G04 APERTURE LIST*
G04 Aperture macros list*
%AMRoundRect*
0 Rectangle with rounded corners*
0 $1 Rounding radius*
0 $2 $3 $4 $5 $6 $7 $8 $9 X,Y pos of 4 corners*
0 Add a 4 corners polygon primitive as box body*
4,1,4,$2,$3,$4,$5,$6,$7,$8,$9,$2,$3,0*
0 Add four circle primitives for the rounded corners*
1,1,$1+$1,$2,$3*
1,1,$1+$1,$4,$5*
1,1,$1+$1,$6,$7*
1,1,$1+$1,$8,$9*
0 Add four rect primitives between the rounded corners*
20,1,$1+$1,$2,$3,$4,$5,0*
20,1,$1+$1,$4,$5,$6,$7,0*
20,1,$1+$1,$6,$7,$8,$9,0*
20,1,$1+$1,$8,$9,$2,$3,0*%
%AMFreePoly0*
4,1,6,0.500000,-0.850000,-0.500000,-0.850000,-0.500000,0.550000,-0.200000,0.850000,0.500000,0.850000,0.500000,-0.850000,0.500000,-0.850000,$1*%
G04 Aperture macros list end*
%ADD10C,0.125000*%
%ADD11C,0.100000*%
%ADD12C,0.120000*%
%ADD13RoundRect,0.100000X0.130000X0.100000X-0.130000X0.100000X-0.130000X-0.100000X0.130000X-0.100000X0*%
%ADD14RoundRect,0.100000X0.100000X-0.130000X0.100000X0.130000X-0.100000X0.130000X-0.100000X-0.130000X0*%
%ADD15RoundRect,0.100000X-0.130000X-0.100000X0.130000X-0.100000X0.130000X0.100000X-0.130000X0.100000X0*%
%ADD16RoundRect,0.100000X-0.100000X0.130000X-0.100000X-0.130000X0.100000X-0.130000X0.100000X0.130000X0*%
%ADD17R,0.850000X1.100000*%
%ADD18R,0.750000X1.100000*%
%ADD19R,1.200000X1.000000*%
%ADD20R,1.550000X1.350000*%
%ADD21R,1.900000X1.350000*%
%ADD22R,1.170000X1.800000*%
%ADD23R,1.700000X1.700000*%
%ADD24C,1.700000*%
%ADD25RoundRect,0.375000X-0.625000X-0.375000X0.625000X-0.375000X0.625000X0.375000X-0.625000X0.375000X0*%
%ADD26RoundRect,0.500000X-0.500000X-1.400000X0.500000X-1.400000X0.500000X1.400000X-0.500000X1.400000X0*%
%ADD27RoundRect,0.212500X0.737500X0.212500X-0.737500X0.212500X-0.737500X-0.212500X0.737500X-0.212500X0*%
%ADD28RoundRect,0.212500X0.212500X0.737500X-0.212500X0.737500X-0.212500X-0.737500X0.212500X-0.737500X0*%
%ADD29R,4.800000X4.800000*%
%ADD30RoundRect,0.250000X0.400000X-0.525000X0.400000X0.525000X-0.400000X0.525000X-0.400000X-0.525000X0*%
%ADD31R,3.500000X3.500000*%
%ADD32RoundRect,0.750000X-0.750000X-1.000000X0.750000X-1.000000X0.750000X1.000000X-0.750000X1.000000X0*%
%ADD33RoundRect,0.875000X-0.875000X-0.875000X0.875000X-0.875000X0.875000X0.875000X-0.875000X0.875000X0*%
%ADD34R,0.900000X1.500000*%
%ADD35R,1.500000X0.900000*%
%ADD36C,0.600000*%
%ADD37R,4.200000X4.200000*%
%ADD38C,3.200000*%
%ADD39RoundRect,0.249999X-1.250001X-1.250001X1.250001X-1.250001X1.250001X1.250001X-1.250001X1.250001X0*%
%ADD40C,3.000000*%
%ADD41RoundRect,0.150000X0.150000X-0.512500X0.150000X0.512500X-0.150000X0.512500X-0.150000X-0.512500X0*%
%ADD42RoundRect,0.150000X-0.150000X0.875000X-0.150000X-0.875000X0.150000X-0.875000X0.150000X0.875000X0*%
%ADD43RoundRect,0.075000X0.075000X-0.250000X0.075000X0.250000X-0.075000X0.250000X-0.075000X-0.250000X0*%
%ADD44R,0.250000X0.550000*%
%ADD45FreePoly0,270.000000*%
G04 APERTURE END LIST*
D10*
X105119048Y-82325166D02*
X105880953Y-82325166D01*
X105500000Y-82706119D02*
X105500000Y-81944214D01*
D11*
%TO.C,D_ENV1*%
X170065000Y-96460000D02*
G75*
G02*
X169965000Y-96460000I-50000J0D01*
G01*
X169965000Y-96460000D02*
G75*
G02*
X170065000Y-96460000I50000J0D01*
G01*
D12*
%TO.C,J2*%
X146620000Y-143055000D02*
X146620000Y-152875000D01*
X147850000Y-143055000D02*
X146620000Y-143055000D01*
X153820000Y-143055000D02*
X150150000Y-143055000D01*
X157320000Y-154695000D02*
X156460000Y-154695000D01*
X158800000Y-143055000D02*
X156120000Y-143055000D01*
X158800000Y-143775000D02*
X158800000Y-143055000D01*
X158800000Y-147475000D02*
X158800000Y-145175000D01*
X158800000Y-153325000D02*
X158800000Y-148875000D01*
%TO.C,U_CHG1*%
X149421000Y-95892840D02*
X150801000Y-95892840D01*
X149421000Y-97272840D02*
X149421000Y-95892840D01*
X149421000Y-98542840D02*
X149421000Y-106272840D01*
X149421000Y-98542840D02*
X152181000Y-98542840D01*
X149421000Y-106272840D02*
X152181000Y-106272840D01*
X152181000Y-98542840D02*
X152181000Y-106272840D01*
D11*
%TO.C,D1*%
X139711000Y-112892840D02*
G75*
G02*
X139611000Y-112892840I-50000J0D01*
G01*
X139611000Y-112892840D02*
G75*
G02*
X139711000Y-112892840I50000J0D01*
G01*
D12*
%TO.C,J_MIC1*%
X161120000Y-98000000D02*
X162500000Y-98000000D01*
X161120000Y-99380000D02*
X161120000Y-98000000D01*
X161120000Y-100650000D02*
X161120000Y-108380000D01*
X161120000Y-100650000D02*
X163880000Y-100650000D01*
X161120000Y-108380000D02*
X163880000Y-108380000D01*
X163880000Y-100650000D02*
X163880000Y-108380000D01*
D11*
%TO.C,D2*%
X139711000Y-113892840D02*
G75*
G02*
X139611000Y-113892840I-50000J0D01*
G01*
X139611000Y-113892840D02*
G75*
G02*
X139711000Y-113892840I50000J0D01*
G01*
D12*
%TO.C,U3*%
X142751000Y-109090000D02*
X146511000Y-109090000D01*
X142751000Y-115910000D02*
X146511000Y-115910000D01*
X146511000Y-109090000D02*
X146511000Y-110350000D01*
X146511000Y-115910000D02*
X146511000Y-114650000D01*
X141471000Y-109190000D02*
X141231000Y-108860000D01*
X141711000Y-108860000D01*
X141471000Y-109190000D01*
G36*
X141471000Y-109190000D02*
G01*
X141231000Y-108860000D01*
X141711000Y-108860000D01*
X141471000Y-109190000D01*
G37*
%TO.C,U4*%
X166345000Y-144340000D02*
X168320000Y-144340000D01*
X166345000Y-146315000D02*
X166345000Y-144340000D01*
X166345000Y-154660000D02*
X166345000Y-152685000D01*
X168320000Y-154660000D02*
X166345000Y-154660000D01*
X174690000Y-144340000D02*
X176665000Y-144340000D01*
X176665000Y-144340000D02*
X176665000Y-146315000D01*
X176665000Y-152685000D02*
X176665000Y-154660000D01*
X176665000Y-154660000D02*
X174690000Y-154660000D01*
X177195000Y-152240000D02*
X176865000Y-152000000D01*
X177195000Y-151760000D01*
X177195000Y-152240000D01*
G36*
X177195000Y-152240000D02*
G01*
X176865000Y-152000000D01*
X177195000Y-151760000D01*
X177195000Y-152240000D01*
G37*
%TO.C,SW_CFG1*%
X137270000Y-144770000D02*
X137300000Y-144770000D01*
X137270000Y-151230000D02*
X137270000Y-144770000D01*
X137300000Y-151230000D02*
X137270000Y-151230000D01*
X139200000Y-144770000D02*
X141800000Y-144770000D01*
X139200000Y-151230000D02*
X141800000Y-151230000D01*
X143730000Y-144770000D02*
X143700000Y-144770000D01*
X143730000Y-151230000D02*
X143700000Y-151230000D01*
X143730000Y-151230000D02*
X143730000Y-144770000D01*
%TO.C,J1*%
X131001000Y-96335340D02*
X145701000Y-96335340D01*
X131001000Y-105535340D02*
X131001000Y-96335340D01*
X139801000Y-105535340D02*
X131001000Y-105535340D01*
X144851000Y-96135340D02*
X145901000Y-96135340D01*
X145701000Y-96335340D02*
X145701000Y-98935340D01*
X145701000Y-102835340D02*
X145701000Y-105535340D01*
X145701000Y-105535340D02*
X143801000Y-105535340D01*
X145901000Y-97185340D02*
X145901000Y-96135340D01*
D11*
%TO.C,D_R1*%
X156910000Y-134000000D02*
G75*
G02*
X156810000Y-134000000I-50000J0D01*
G01*
X156810000Y-134000000D02*
G75*
G02*
X156910000Y-134000000I50000J0D01*
G01*
D12*
%TO.C,U1*%
X160735000Y-115297500D02*
X160735000Y-116297500D01*
X160735000Y-133537500D02*
X160735000Y-132537500D01*
X161515000Y-115297500D02*
X160735000Y-115297500D01*
X161515000Y-133537500D02*
X160735000Y-133537500D01*
X186475000Y-115297500D02*
X180315000Y-115297500D01*
X186475000Y-115297500D02*
X186475000Y-133537500D01*
X186475000Y-133537500D02*
X180060000Y-133537500D01*
X180090000Y-115292500D02*
X179590000Y-115292500D01*
X179590000Y-114792500D01*
X180090000Y-115292500D01*
G36*
X180090000Y-115292500D02*
G01*
X179590000Y-115292500D01*
X179590000Y-114792500D01*
X180090000Y-115292500D01*
G37*
%TO.C,BT1*%
X107535000Y-71140000D02*
X186455000Y-71140000D01*
X107535000Y-93260000D02*
X107535000Y-71140000D01*
X186455000Y-71140000D02*
X186455000Y-93260000D01*
X186455000Y-93260000D02*
X107535000Y-93260000D01*
D11*
%TO.C,D_G1*%
X156910000Y-132000000D02*
G75*
G02*
X156810000Y-132000000I-50000J0D01*
G01*
X156810000Y-132000000D02*
G75*
G02*
X156910000Y-132000000I50000J0D01*
G01*
D12*
%TO.C,U_MIC1*%
X166302500Y-98187500D02*
X166352500Y-98187500D01*
X166302500Y-100007500D02*
X166302500Y-98187500D01*
X166352500Y-100007500D02*
X166302500Y-100007500D01*
X167472500Y-98187500D02*
X168252500Y-98187500D01*
X169372500Y-98187500D02*
X169422500Y-98187500D01*
X169422500Y-98187500D02*
X169422500Y-100007500D01*
X169422500Y-100007500D02*
X169372500Y-100007500D01*
X166352500Y-100547500D02*
X166022500Y-100787500D01*
X166022500Y-100307500D01*
X166352500Y-100547500D01*
G36*
X166352500Y-100547500D02*
G01*
X166022500Y-100787500D01*
X166022500Y-100307500D01*
X166352500Y-100547500D01*
G37*
%TO.C,U_CLK1*%
X147240000Y-121140000D02*
X147495000Y-121140000D01*
X147240000Y-128860000D02*
X147240000Y-121140000D01*
X147495000Y-128860000D02*
X147240000Y-128860000D01*
X157505000Y-121140000D02*
X157760000Y-121140000D01*
X157760000Y-121140000D02*
X157760000Y-128860000D01*
X157760000Y-128860000D02*
X157505000Y-128860000D01*
X157980000Y-120690000D02*
X157510000Y-120350000D01*
X157980000Y-120010000D01*
X157980000Y-120690000D01*
G36*
X157980000Y-120690000D02*
G01*
X157510000Y-120350000D01*
X157980000Y-120010000D01*
X157980000Y-120690000D01*
G37*
%TO.C,U_LUX1*%
X160055000Y-143200000D02*
X160055000Y-141500000D01*
X162255000Y-143480000D02*
X162255000Y-141510000D01*
X160095000Y-143880000D02*
X159815000Y-143600000D01*
X160095000Y-143600000D01*
X160095000Y-143880000D01*
G36*
X160095000Y-143880000D02*
G01*
X159815000Y-143600000D01*
X160095000Y-143600000D01*
X160095000Y-143880000D01*
G37*
%TO.C,U2*%
X162390000Y-144575000D02*
X162390000Y-147075000D01*
X165110000Y-144575000D02*
X165110000Y-147075000D01*
X165080000Y-144175000D02*
X164800000Y-144175000D01*
X164800000Y-143895000D01*
X165080000Y-144175000D01*
G36*
X165080000Y-144175000D02*
G01*
X164800000Y-144175000D01*
X164800000Y-143895000D01*
X165080000Y-144175000D01*
G37*
%TD*%
%LPC*%
D13*
%TO.C,D_ENV1*%
X169475000Y-96460000D03*
X168835000Y-96460000D03*
%TD*%
D14*
%TO.C,R2*%
X166500000Y-143640000D03*
X166500000Y-143000000D03*
%TD*%
D15*
%TO.C,R_ENV1*%
X171525000Y-98460000D03*
X172165000Y-98460000D03*
%TD*%
D13*
%TO.C,R_LED_R1*%
X154820000Y-134000000D03*
X154180000Y-134000000D03*
%TD*%
D16*
%TO.C,R4*%
X166500000Y-103140000D03*
X166500000Y-103780000D03*
%TD*%
D15*
%TO.C,R_V1*%
X150736000Y-109892840D03*
X151376000Y-109892840D03*
%TD*%
D17*
%TO.C,J2*%
X155835000Y-154325000D03*
X154735000Y-154325000D03*
X153635000Y-154325000D03*
X152535000Y-154325000D03*
X151435000Y-154325000D03*
X150335000Y-154325000D03*
X149235000Y-154325000D03*
D18*
X148185000Y-154325000D03*
D19*
X158470000Y-148175000D03*
X158470000Y-144475000D03*
D20*
X158295000Y-154200000D03*
D21*
X154970000Y-143500000D03*
X149000000Y-143500000D03*
D22*
X146975000Y-153975000D03*
%TD*%
D16*
%TO.C,R7*%
X170000000Y-99140000D03*
X170000000Y-99780000D03*
%TD*%
%TO.C,R_ADC1*%
X172000000Y-99295000D03*
X172000000Y-99935000D03*
%TD*%
D14*
%TO.C,R1*%
X167500000Y-143615000D03*
X167500000Y-142975000D03*
%TD*%
D23*
%TO.C,U_CHG1*%
X150801000Y-97272840D03*
D24*
X150801000Y-99812840D03*
X150801000Y-102352840D03*
X150801000Y-104892840D03*
%TD*%
D14*
%TO.C,C_SD1*%
X160800001Y-151475000D03*
X160800001Y-150835000D03*
%TD*%
D13*
%TO.C,D1*%
X139121000Y-112892840D03*
X138481000Y-112892840D03*
%TD*%
D23*
%TO.C,J_MIC1*%
X162500000Y-99380000D03*
D24*
X162500000Y-101920000D03*
X162500000Y-104460000D03*
X162500000Y-107000000D03*
%TD*%
D14*
%TO.C,R5*%
X166500000Y-102280000D03*
X166500000Y-101640000D03*
%TD*%
D15*
%TO.C,C_ENV1*%
X171525000Y-97460000D03*
X172165000Y-97460000D03*
%TD*%
D13*
%TO.C,D2*%
X139121000Y-113892840D03*
X138481000Y-113892840D03*
%TD*%
%TO.C,R_LED_G1*%
X154845000Y-132000000D03*
X154205000Y-132000000D03*
%TD*%
D15*
%TO.C,C_IN1*%
X138801000Y-115392840D03*
X139441000Y-115392840D03*
%TD*%
D25*
%TO.C,U3*%
X141451000Y-110200000D03*
X141451000Y-112500000D03*
D26*
X147751000Y-112500000D03*
D25*
X141451000Y-114800000D03*
%TD*%
D14*
%TO.C,C_REF1*%
X167500000Y-103625000D03*
X167500000Y-102985000D03*
%TD*%
D15*
%TO.C,C_CO2*%
X172985000Y-155300000D03*
X173625000Y-155300000D03*
%TD*%
D14*
%TO.C,R3*%
X165500000Y-104780000D03*
X165500000Y-104140000D03*
%TD*%
D16*
%TO.C,R_RTCINT1*%
X154500000Y-117680000D03*
X154500000Y-118320000D03*
%TD*%
D27*
%TO.C,U4*%
X175655000Y-152000000D03*
X175655000Y-150750000D03*
X175655000Y-149500000D03*
X175655000Y-148250000D03*
X175655000Y-147000000D03*
D28*
X174005000Y-145350000D03*
X172755000Y-145350000D03*
X171505000Y-145350000D03*
X170255000Y-145350000D03*
X169005000Y-145350000D03*
D27*
X167355000Y-147000000D03*
X167355000Y-148250000D03*
X167355000Y-149500000D03*
X167355000Y-150750000D03*
X167355000Y-152000000D03*
D28*
X169005000Y-153650000D03*
X170255000Y-153650000D03*
X171505000Y-153650000D03*
X172755000Y-153650000D03*
X174005000Y-153650000D03*
D29*
X171505000Y-149500000D03*
%TD*%
D13*
%TO.C,C_IN2*%
X165500000Y-101460000D03*
X164860000Y-101460000D03*
%TD*%
D30*
%TO.C,SW_CFG1*%
X138250000Y-151980000D03*
X138250000Y-144020000D03*
X142750000Y-151980000D03*
X142750000Y-144020000D03*
%TD*%
D31*
%TO.C,J1*%
X144801000Y-100935340D03*
D32*
X138801000Y-100935340D03*
D33*
X141801000Y-105635340D03*
%TD*%
D13*
%TO.C,C_OUT1*%
X150621000Y-113392840D03*
X149981000Y-113392840D03*
%TD*%
D15*
%TO.C,R_V2*%
X152301000Y-109892840D03*
X152941000Y-109892840D03*
%TD*%
D13*
%TO.C,D_R1*%
X156320000Y-134000000D03*
X155680000Y-134000000D03*
%TD*%
%TO.C,R_EN1*%
X177500000Y-114000000D03*
X176860000Y-114000000D03*
%TD*%
D34*
%TO.C,U1*%
X178865000Y-115667500D03*
X177595000Y-115667500D03*
X176325000Y-115667500D03*
X175055000Y-115667500D03*
X173785000Y-115667500D03*
X172515000Y-115667500D03*
X171245000Y-115667500D03*
X169975000Y-115667500D03*
X168705000Y-115667500D03*
X167435000Y-115667500D03*
X166165000Y-115667500D03*
X164895000Y-115667500D03*
X163625000Y-115667500D03*
X162355000Y-115667500D03*
D35*
X161105000Y-118707500D03*
X161105000Y-119977500D03*
X161105000Y-121247500D03*
X161105000Y-122517500D03*
X161105000Y-123787500D03*
X161105000Y-125057500D03*
X161105000Y-126327500D03*
X161105000Y-127597500D03*
X161105000Y-128867500D03*
X161105000Y-130137500D03*
D34*
X162355000Y-133167500D03*
X163625000Y-133167500D03*
X164895000Y-133167500D03*
X166165000Y-133167500D03*
X167435000Y-133167500D03*
X168705000Y-133167500D03*
X169975000Y-133167500D03*
X171245000Y-133167500D03*
X172515000Y-133167500D03*
X173785000Y-133167500D03*
X175055000Y-133167500D03*
X176325000Y-133167500D03*
X177595000Y-133167500D03*
X178865000Y-133167500D03*
D36*
X172287500Y-122212500D03*
X170762500Y-122212500D03*
X173050000Y-122975000D03*
X171525000Y-122975000D03*
X170000000Y-122975000D03*
X172287500Y-123737500D03*
D37*
X171525000Y-123737500D03*
D36*
X170762500Y-123737500D03*
X173050000Y-124500000D03*
X171525000Y-124500000D03*
X170000000Y-124500000D03*
X172287500Y-125262500D03*
X170762500Y-125262500D03*
%TD*%
D38*
%TO.C,BT1*%
X118990000Y-82200000D03*
X174600000Y-82200000D03*
D39*
X110545000Y-82200000D03*
D40*
X183445000Y-82200000D03*
%TD*%
D13*
%TO.C,D_G1*%
X156320000Y-132000000D03*
X155680000Y-132000000D03*
%TD*%
D16*
%TO.C,C_RTC1*%
X156000000Y-117680000D03*
X156000000Y-118320000D03*
%TD*%
D15*
%TO.C,C_LUX1*%
X160680000Y-144500000D03*
X161320000Y-144500000D03*
%TD*%
D41*
%TO.C,U_MIC1*%
X166912500Y-100235000D03*
X167862500Y-100235000D03*
X168812500Y-100235000D03*
X168812500Y-97960000D03*
X166912500Y-97960000D03*
%TD*%
D13*
%TO.C,R_CFG1*%
X143130000Y-142040000D03*
X142490000Y-142040000D03*
%TD*%
D42*
%TO.C,U_CLK1*%
X156945000Y-120350000D03*
X155675000Y-120350000D03*
X154405000Y-120350000D03*
X153135000Y-120350000D03*
X151865000Y-120350000D03*
X150595000Y-120350000D03*
X149325000Y-120350000D03*
X148055000Y-120350000D03*
X148055000Y-129650000D03*
X149325000Y-129650000D03*
X150595000Y-129650000D03*
X151865000Y-129650000D03*
X153135000Y-129650000D03*
X154405000Y-129650000D03*
X155675000Y-129650000D03*
X156945000Y-129650000D03*
%TD*%
D43*
%TO.C,U_LUX1*%
X160505000Y-143400000D03*
X161155000Y-143400000D03*
X161805000Y-143400000D03*
X161805000Y-141600000D03*
X161155000Y-141600000D03*
X160505000Y-141600000D03*
%TD*%
D44*
%TO.C,U2*%
X164500000Y-144650000D03*
X164000000Y-144650000D03*
X163500000Y-144650000D03*
X163000000Y-144650000D03*
X163000000Y-147000000D03*
X163500000Y-147000000D03*
X164000000Y-147000000D03*
X164500000Y-147000000D03*
D45*
X163750000Y-145825000D03*
%TD*%
D14*
%TO.C,C_SD2*%
X160800001Y-149640000D03*
X160800001Y-149000000D03*
%TD*%
D15*
%TO.C,R6*%
X167680000Y-101960000D03*
X168320000Y-101960000D03*
%TD*%
%LPD*%
M02*
